<svg width="2928" height="150" viewBox="0 0 2928 150" fill="none" xmlns="http://www.w3.org/2000/svg">
<rect x="21" width="150" height="21" transform="rotate(90 21 0)" fill="black"/>
<rect x="503" width="150" height="21" transform="rotate(90 503 0)" fill="black"/>
<rect x="989" width="150" height="21" transform="rotate(90 989 0)" fill="black"/>
<rect x="1478" width="150" height="21" transform="rotate(90 1478 0)" fill="black"/>
<rect x="2456" width="150" height="21" transform="rotate(90 2456 0)" fill="black"/>
<rect x="1967" width="150" height="21" transform="rotate(90 1967 0)" fill="black"/>
<rect x="79" width="150" height="22" transform="rotate(90 79 0)" fill="black"/>
<rect x="561" width="150" height="22" transform="rotate(90 561 0)" fill="black"/>
<rect x="1047" width="150" height="22" transform="rotate(90 1047 0)" fill="black"/>
<rect x="1536" width="150" height="22" transform="rotate(90 1536 0)" fill="black"/>
<rect x="2514" width="150" height="22" transform="rotate(90 2514 0)" fill="black"/>
<rect x="2025" width="150" height="22" transform="rotate(90 2025 0)" fill="black"/>
<rect x="136" width="150" height="21" transform="rotate(90 136 0)" fill="black"/>
<rect x="618" width="150" height="21" transform="rotate(90 618 0)" fill="black"/>
<rect x="1104" width="150" height="21" transform="rotate(90 1104 0)" fill="black"/>
<rect x="1593" width="150" height="21" transform="rotate(90 1593 0)" fill="black"/>
<rect x="2571" width="150" height="21" transform="rotate(90 2571 0)" fill="black"/>
<rect x="2082" width="150" height="21" transform="rotate(90 2082 0)" fill="black"/>
<path d="M203.49 99L199.99 87.38H183.68L180.18 99H169.4L185.5 50.14H198.66L214.55 99H203.49ZM191.94 59.8H191.59L186.2 78.35H197.4L191.94 59.8ZM240.393 95.78H237.523C234.443 95.78 231.619 95.2433 229.053 94.17C226.486 93.0967 224.269 91.6267 222.403 89.76C220.583 87.8467 219.159 85.6067 218.133 83.04C217.106 80.4733 216.593 77.6967 216.593 74.71C216.593 71.7233 217.083 68.9467 218.063 66.38C219.089 63.8133 220.513 61.5733 222.333 59.66C224.153 57.7467 226.346 56.2533 228.913 55.18C231.479 54.06 234.349 53.5 237.523 53.5H240.393V47.2H251.173V53.5H254.043C257.216 53.5 260.086 54.06 262.653 55.18C265.219 56.2533 267.413 57.7467 269.233 59.66C271.053 61.5733 272.453 63.8133 273.433 66.38C274.459 68.9467 274.973 71.7233 274.973 74.71C274.973 77.6967 274.459 80.4733 273.433 83.04C272.406 85.6067 270.959 87.8467 269.093 89.76C267.273 91.6267 265.079 93.0967 262.513 94.17C259.946 95.2433 257.123 95.78 254.043 95.78H251.173V102.08H240.393V95.78ZM240.603 87.03V62.25H237.523C235.749 62.25 234.233 62.53 232.973 63.09C231.713 63.6033 230.686 64.3267 229.893 65.26C229.099 66.1467 228.493 67.22 228.073 68.48C227.699 69.6933 227.513 71.0233 227.513 72.47V76.81C227.513 79.75 228.329 82.2 229.963 84.16C231.643 86.0733 234.163 87.03 237.523 87.03H240.603ZM254.043 87.03C257.403 87.03 259.899 86.0733 261.533 84.16C263.213 82.2 264.053 79.75 264.053 76.81V72.47C264.053 71.0233 263.843 69.6933 263.423 68.48C263.049 67.22 262.466 66.1467 261.673 65.26C260.879 64.3267 259.829 63.6033 258.523 63.09C257.263 62.53 255.769 62.25 254.043 62.25H250.963V87.03H254.043ZM282.833 50.14H293.193V74.01L292.073 84.3H292.283L297.113 74.99L313.213 50.14H322.733V99H312.373V75.13L313.493 64.84H313.283L308.453 74.15L292.353 99H282.833V50.14ZM333.488 50.14H344.128V89.55H358.898V50.14H369.538V89.55H384.168V50.14H394.808V99H333.488V50.14ZM435.707 99L432.207 87.38H415.897L412.397 99H401.617L417.717 50.14H430.877L446.767 99H435.707ZM424.157 59.8H423.807L418.417 78.35H429.617L424.157 59.8Z" fill="black"/>
<path d="M689.49 98L685.99 86.38H669.68L666.18 98H655.4L671.5 49.14H684.66L700.55 98H689.49ZM677.94 58.8H677.59L672.2 77.35H683.4L677.94 58.8ZM726.393 94.78H723.523C720.443 94.78 717.619 94.2433 715.053 93.17C712.486 92.0967 710.269 90.6267 708.403 88.76C706.583 86.8467 705.159 84.6067 704.133 82.04C703.106 79.4733 702.593 76.6967 702.593 73.71C702.593 70.7233 703.083 67.9467 704.063 65.38C705.089 62.8133 706.513 60.5733 708.333 58.66C710.153 56.7467 712.346 55.2533 714.913 54.18C717.479 53.06 720.349 52.5 723.523 52.5H726.393V46.2H737.173V52.5H740.043C743.216 52.5 746.086 53.06 748.653 54.18C751.219 55.2533 753.413 56.7467 755.233 58.66C757.053 60.5733 758.453 62.8133 759.433 65.38C760.459 67.9467 760.973 70.7233 760.973 73.71C760.973 76.6967 760.459 79.4733 759.433 82.04C758.406 84.6067 756.959 86.8467 755.093 88.76C753.273 90.6267 751.079 92.0967 748.513 93.17C745.946 94.2433 743.123 94.78 740.043 94.78H737.173V101.08H726.393V94.78ZM726.603 86.03V61.25H723.523C721.749 61.25 720.233 61.53 718.973 62.09C717.713 62.6033 716.686 63.3267 715.893 64.26C715.099 65.1467 714.493 66.22 714.073 67.48C713.699 68.6933 713.513 70.0233 713.513 71.47V75.81C713.513 78.75 714.329 81.2 715.963 83.16C717.643 85.0733 720.163 86.03 723.523 86.03H726.603ZM740.043 86.03C743.403 86.03 745.899 85.0733 747.533 83.16C749.213 81.2 750.053 78.75 750.053 75.81V71.47C750.053 70.0233 749.843 68.6933 749.423 67.48C749.049 66.22 748.466 65.1467 747.673 64.26C746.879 63.3267 745.829 62.6033 744.523 62.09C743.263 61.53 741.769 61.25 740.043 61.25H736.963V86.03H740.043ZM768.833 49.14H779.193V73.01L778.073 83.3H778.283L783.113 73.99L799.213 49.14H808.733V98H798.373V74.13L799.493 63.84H799.283L794.453 73.15L778.353 98H768.833V49.14ZM819.488 49.14H830.128V88.55H844.898V49.14H855.538V88.55H870.168V49.14H880.808V98H819.488V49.14ZM921.707 98L918.207 86.38H901.897L898.397 98H887.617L903.717 49.14H916.877L932.767 98H921.707ZM910.157 58.8H909.807L904.417 77.35H915.617L910.157 58.8Z" fill="black"/>
<path d="M1175.49 97L1171.99 85.38H1155.68L1152.18 97H1141.4L1157.5 48.14H1170.66L1186.55 97H1175.49ZM1163.94 57.8H1163.59L1158.2 76.35H1169.4L1163.94 57.8ZM1212.39 93.78H1209.52C1206.44 93.78 1203.62 93.2433 1201.05 92.17C1198.49 91.0967 1196.27 89.6267 1194.4 87.76C1192.58 85.8467 1191.16 83.6067 1190.13 81.04C1189.11 78.4733 1188.59 75.6967 1188.59 72.71C1188.59 69.7233 1189.08 66.9467 1190.06 64.38C1191.09 61.8133 1192.51 59.5733 1194.33 57.66C1196.15 55.7467 1198.35 54.2533 1200.91 53.18C1203.48 52.06 1206.35 51.5 1209.52 51.5H1212.39V45.2H1223.17V51.5H1226.04C1229.22 51.5 1232.09 52.06 1234.65 53.18C1237.22 54.2533 1239.41 55.7467 1241.23 57.66C1243.05 59.5733 1244.45 61.8133 1245.43 64.38C1246.46 66.9467 1246.97 69.7233 1246.97 72.71C1246.97 75.6967 1246.46 78.4733 1245.43 81.04C1244.41 83.6067 1242.96 85.8467 1241.09 87.76C1239.27 89.6267 1237.08 91.0967 1234.51 92.17C1231.95 93.2433 1229.12 93.78 1226.04 93.78H1223.17V100.08H1212.39V93.78ZM1212.6 85.03V60.25H1209.52C1207.75 60.25 1206.23 60.53 1204.97 61.09C1203.71 61.6033 1202.69 62.3267 1201.89 63.26C1201.1 64.1467 1200.49 65.22 1200.07 66.48C1199.7 67.6933 1199.51 69.0233 1199.51 70.47V74.81C1199.51 77.75 1200.33 80.2 1201.96 82.16C1203.64 84.0733 1206.16 85.03 1209.52 85.03H1212.6ZM1226.04 85.03C1229.4 85.03 1231.9 84.0733 1233.53 82.16C1235.21 80.2 1236.05 77.75 1236.05 74.81V70.47C1236.05 69.0233 1235.84 67.6933 1235.42 66.48C1235.05 65.22 1234.47 64.1467 1233.67 63.26C1232.88 62.3267 1231.83 61.6033 1230.52 61.09C1229.26 60.53 1227.77 60.25 1226.04 60.25H1222.96V85.03H1226.04ZM1254.83 48.14H1265.19V72.01L1264.07 82.3H1264.28L1269.11 72.99L1285.21 48.14H1294.73V97H1284.37V73.13L1285.49 62.84H1285.28L1280.45 72.15L1264.35 97H1254.83V48.14ZM1305.49 48.14H1316.13V87.55H1330.9V48.14H1341.54V87.55H1356.17V48.14H1366.81V97H1305.49V48.14ZM1407.71 97L1404.21 85.38H1387.9L1384.4 97H1373.62L1389.72 48.14H1402.88L1418.77 97H1407.71ZM1396.16 57.8H1395.81L1390.42 76.35H1401.62L1396.16 57.8Z" fill="black"/>
<path d="M2153.49 97L2149.99 85.38H2133.68L2130.18 97H2119.4L2135.5 48.14H2148.66L2164.55 97H2153.49ZM2141.94 57.8H2141.59L2136.2 76.35H2147.4L2141.94 57.8ZM2190.39 93.78H2187.52C2184.44 93.78 2181.62 93.2433 2179.05 92.17C2176.49 91.0967 2174.27 89.6267 2172.4 87.76C2170.58 85.8467 2169.16 83.6067 2168.13 81.04C2167.11 78.4733 2166.59 75.6967 2166.59 72.71C2166.59 69.7233 2167.08 66.9467 2168.06 64.38C2169.09 61.8133 2170.51 59.5733 2172.33 57.66C2174.15 55.7467 2176.35 54.2533 2178.91 53.18C2181.48 52.06 2184.35 51.5 2187.52 51.5H2190.39V45.2H2201.17V51.5H2204.04C2207.22 51.5 2210.09 52.06 2212.65 53.18C2215.22 54.2533 2217.41 55.7467 2219.23 57.66C2221.05 59.5733 2222.45 61.8133 2223.43 64.38C2224.46 66.9467 2224.97 69.7233 2224.97 72.71C2224.97 75.6967 2224.46 78.4733 2223.43 81.04C2222.41 83.6067 2220.96 85.8467 2219.09 87.76C2217.27 89.6267 2215.08 91.0967 2212.51 92.17C2209.95 93.2433 2207.12 93.78 2204.04 93.78H2201.17V100.08H2190.39V93.78ZM2190.6 85.03V60.25H2187.52C2185.75 60.25 2184.23 60.53 2182.97 61.09C2181.71 61.6033 2180.69 62.3267 2179.89 63.26C2179.1 64.1467 2178.49 65.22 2178.07 66.48C2177.7 67.6933 2177.51 69.0233 2177.51 70.47V74.81C2177.51 77.75 2178.33 80.2 2179.96 82.16C2181.64 84.0733 2184.16 85.03 2187.52 85.03H2190.6ZM2204.04 85.03C2207.4 85.03 2209.9 84.0733 2211.53 82.16C2213.21 80.2 2214.05 77.75 2214.05 74.81V70.47C2214.05 69.0233 2213.84 67.6933 2213.42 66.48C2213.05 65.22 2212.47 64.1467 2211.67 63.26C2210.88 62.3267 2209.83 61.6033 2208.52 61.09C2207.26 60.53 2205.77 60.25 2204.04 60.25H2200.96V85.03H2204.04ZM2232.83 48.14H2243.19V72.01L2242.07 82.3H2242.28L2247.11 72.99L2263.21 48.14H2272.73V97H2262.37V73.13L2263.49 62.84H2263.28L2258.45 72.15L2242.35 97H2232.83V48.14ZM2283.49 48.14H2294.13V87.55H2308.9V48.14H2319.54V87.55H2334.17V48.14H2344.81V97H2283.49V48.14ZM2385.71 97L2382.21 85.38H2365.9L2362.4 97H2351.62L2367.72 48.14H2380.88L2396.77 97H2385.71ZM2374.16 57.8H2373.81L2368.42 76.35H2379.62L2374.16 57.8Z" fill="black"/>
<path d="M1664.49 97L1660.99 85.38H1644.68L1641.18 97H1630.4L1646.5 48.14H1659.66L1675.55 97H1664.49ZM1652.94 57.8H1652.59L1647.2 76.35H1658.4L1652.94 57.8ZM1701.39 93.78H1698.52C1695.44 93.78 1692.62 93.2433 1690.05 92.17C1687.49 91.0967 1685.27 89.6267 1683.4 87.76C1681.58 85.8467 1680.16 83.6067 1679.13 81.04C1678.11 78.4733 1677.59 75.6967 1677.59 72.71C1677.59 69.7233 1678.08 66.9467 1679.06 64.38C1680.09 61.8133 1681.51 59.5733 1683.33 57.66C1685.15 55.7467 1687.35 54.2533 1689.91 53.18C1692.48 52.06 1695.35 51.5 1698.52 51.5H1701.39V45.2H1712.17V51.5H1715.04C1718.22 51.5 1721.09 52.06 1723.65 53.18C1726.22 54.2533 1728.41 55.7467 1730.23 57.66C1732.05 59.5733 1733.45 61.8133 1734.43 64.38C1735.46 66.9467 1735.97 69.7233 1735.97 72.71C1735.97 75.6967 1735.46 78.4733 1734.43 81.04C1733.41 83.6067 1731.96 85.8467 1730.09 87.76C1728.27 89.6267 1726.08 91.0967 1723.51 92.17C1720.95 93.2433 1718.12 93.78 1715.04 93.78H1712.17V100.08H1701.39V93.78ZM1701.6 85.03V60.25H1698.52C1696.75 60.25 1695.23 60.53 1693.97 61.09C1692.71 61.6033 1691.69 62.3267 1690.89 63.26C1690.1 64.1467 1689.49 65.22 1689.07 66.48C1688.7 67.6933 1688.51 69.0233 1688.51 70.47V74.81C1688.51 77.75 1689.33 80.2 1690.96 82.16C1692.64 84.0733 1695.16 85.03 1698.52 85.03H1701.6ZM1715.04 85.03C1718.4 85.03 1720.9 84.0733 1722.53 82.16C1724.21 80.2 1725.05 77.75 1725.05 74.81V70.47C1725.05 69.0233 1724.84 67.6933 1724.42 66.48C1724.05 65.22 1723.47 64.1467 1722.67 63.26C1721.88 62.3267 1720.83 61.6033 1719.52 61.09C1718.26 60.53 1716.77 60.25 1715.04 60.25H1711.96V85.03H1715.04ZM1743.83 48.14H1754.19V72.01L1753.07 82.3H1753.28L1758.11 72.99L1774.21 48.14H1783.73V97H1773.37V73.13L1774.49 62.84H1774.28L1769.45 72.15L1753.35 97H1743.83V48.14ZM1794.49 48.14H1805.13V87.55H1819.9V48.14H1830.54V87.55H1845.17V48.14H1855.81V97H1794.49V48.14ZM1896.71 97L1893.21 85.38H1876.9L1873.4 97H1862.62L1878.72 48.14H1891.88L1907.77 97H1896.71ZM1885.16 57.8H1884.81L1879.42 76.35H1890.62L1885.16 57.8Z" fill="black"/>
<path d="M2642.49 97L2638.99 85.38H2622.68L2619.18 97H2608.4L2624.5 48.14H2637.66L2653.55 97H2642.49ZM2630.94 57.8H2630.59L2625.2 76.35H2636.4L2630.94 57.8ZM2679.39 93.78H2676.52C2673.44 93.78 2670.62 93.2433 2668.05 92.17C2665.49 91.0967 2663.27 89.6267 2661.4 87.76C2659.58 85.8467 2658.16 83.6067 2657.13 81.04C2656.11 78.4733 2655.59 75.6967 2655.59 72.71C2655.59 69.7233 2656.08 66.9467 2657.06 64.38C2658.09 61.8133 2659.51 59.5733 2661.33 57.66C2663.15 55.7467 2665.35 54.2533 2667.91 53.18C2670.48 52.06 2673.35 51.5 2676.52 51.5H2679.39V45.2H2690.17V51.5H2693.04C2696.22 51.5 2699.09 52.06 2701.65 53.18C2704.22 54.2533 2706.41 55.7467 2708.23 57.66C2710.05 59.5733 2711.45 61.8133 2712.43 64.38C2713.46 66.9467 2713.97 69.7233 2713.97 72.71C2713.97 75.6967 2713.46 78.4733 2712.43 81.04C2711.41 83.6067 2709.96 85.8467 2708.09 87.76C2706.27 89.6267 2704.08 91.0967 2701.51 92.17C2698.95 93.2433 2696.12 93.78 2693.04 93.78H2690.17V100.08H2679.39V93.78ZM2679.6 85.03V60.25H2676.52C2674.75 60.25 2673.23 60.53 2671.97 61.09C2670.71 61.6033 2669.69 62.3267 2668.89 63.26C2668.1 64.1467 2667.49 65.22 2667.07 66.48C2666.7 67.6933 2666.51 69.0233 2666.51 70.47V74.81C2666.51 77.75 2667.33 80.2 2668.96 82.16C2670.64 84.0733 2673.16 85.03 2676.52 85.03H2679.6ZM2693.04 85.03C2696.4 85.03 2698.9 84.0733 2700.53 82.16C2702.21 80.2 2703.05 77.75 2703.05 74.81V70.47C2703.05 69.0233 2702.84 67.6933 2702.42 66.48C2702.05 65.22 2701.47 64.1467 2700.67 63.26C2699.88 62.3267 2698.83 61.6033 2697.52 61.09C2696.26 60.53 2694.77 60.25 2693.04 60.25H2689.96V85.03H2693.04ZM2721.83 48.14H2732.19V72.01L2731.07 82.3H2731.28L2736.11 72.99L2752.21 48.14H2761.73V97H2751.37V73.13L2752.49 62.84H2752.28L2747.45 72.15L2731.35 97H2721.83V48.14ZM2772.49 48.14H2783.13V87.55H2797.9V48.14H2808.54V87.55H2823.17V48.14H2833.81V97H2772.49V48.14ZM2874.71 97L2871.21 85.38H2854.9L2851.4 97H2840.62L2856.72 48.14H2869.88L2885.77 97H2874.71ZM2863.16 57.8H2862.81L2857.42 76.35H2868.62L2863.16 57.8Z" fill="black"/>
</svg>
