<svg width="127" height="150" viewBox="0 0 127 150" fill="none" xmlns="http://www.w3.org/2000/svg">
<path d="M0 0H127V150H0V0Z" fill="#5EB6CA"/>
<path d="M39.872 40.992H83.84V52.224H52.544V66.912H70.496C73.568 66.912 76.32 67.424 78.752 68.448C81.184 69.408 83.264 70.816 84.992 72.672C86.72 74.464 88.032 76.64 88.928 79.2C89.824 81.696 90.272 84.48 90.272 87.552C90.272 90.56 89.824 93.344 88.928 95.904C88.032 98.4 86.72 100.544 84.992 102.336C83.264 104.128 81.184 105.536 78.752 106.56C76.32 107.52 73.568 108 70.496 108H39.872V40.992ZM69.248 96.96C71.68 96.96 73.6 96.32 75.008 95.04C76.416 93.76 77.12 91.808 77.12 89.184V85.728C77.12 83.168 76.416 81.248 75.008 79.968C73.6 78.624 71.68 77.952 69.248 77.952H52.544V96.96H69.248Z" fill="black"/>
</svg>
