<svg width="195" height="196" viewBox="0 0 195 196" fill="none" xmlns="http://www.w3.org/2000/svg">
<path d="M99.2477 1.98242H95.7715V65.9326H99.2477V1.98242Z" fill="black"/>
<path d="M101.23 0H93.7793V67.9148H101.23V0Z" fill="black"/>
<path d="M166.255 31.1601L163.796 28.7031L118.596 73.9415L121.055 76.3985L166.255 31.1601Z" fill="black"/>
<path d="M163.782 25.8995L115.78 73.9424L121.051 79.2083L169.053 31.1654L163.782 25.8995Z" fill="black"/>
<path d="M193.028 99.1637L193.025 95.6875L129.075 95.7364L129.078 99.2126L193.028 99.1637Z" fill="black"/>
<path d="M195 93.7324H127.085V101.183H195V93.7324Z" fill="black"/>
<path d="M163.898 166.189L166.354 163.729L121.083 118.56L118.628 121.021L163.898 166.189Z" fill="black"/>
<path d="M121.084 115.76L115.822 121.034L163.899 169.002L169.161 163.728L121.084 115.76Z" fill="black"/>
<path d="M95.9144 193.017L99.3906 193.012L99.2928 129.062L95.8166 129.067L95.9144 193.017Z" fill="black"/>
<path d="M101.282 127.082L93.832 127.094L93.9362 195.009L101.387 194.997L101.282 127.082Z" fill="black"/>
<path d="M28.8662 163.937L31.3291 166.391L76.4652 121.082L74.0023 118.628L28.8662 163.937Z" fill="black"/>
<path d="M73.9821 115.839L26.0479 163.95L31.3257 169.209L79.2599 121.098L73.9821 115.839Z" fill="black"/>
<path d="M1.99105 95.9877L1.99902 99.4638L65.9492 99.3171L65.9413 95.8409L1.99105 95.9877Z" fill="black"/>
<path d="M67.9148 93.8473L0 94.0009L0.0168576 101.451L67.9316 101.298L67.9148 93.8473Z" fill="black"/>
<path d="M31.008 28.9104L28.5566 31.375L73.8974 76.4727L76.3488 74.0081L31.008 28.9104Z" fill="black"/>
<path d="M31.0069 26.1006L25.7529 31.3829L73.9045 79.2764L79.1585 73.9941L31.0069 26.1006Z" fill="black"/>
<path d="M97.3032 111.971C105.58 111.971 112.29 105.261 112.29 96.9838C112.29 88.7068 105.58 81.997 97.3032 81.997C89.0262 81.997 82.3164 88.7068 82.3164 96.9838C82.3164 105.261 89.0262 111.971 97.3032 111.971Z" fill="black"/>
</svg>
