<svg width="51" height="51" viewBox="0 0 51 51" fill="none" xmlns="http://www.w3.org/2000/svg">
<path d="M1.99842 2.8074L2.84333 1.96325L18.3736 17.5062L17.9511 17.9282L17.5287 18.3503L1.99842 2.8074Z" fill="black"/>
<path d="M2.84776 1L19.3408 17.5065L17.53 19.3157L1.03691 2.80924L2.84776 1Z" fill="black"/>
<path d="M2.80796 49.1995L1.96436 48.3541L17.5188 32.8353L17.9406 33.2581L18.3624 33.6808L2.80796 49.1995Z" fill="black"/>
<path d="M17.5185 31.8727L19.3266 33.6848L2.80785 50.1656L0.999825 48.3536L17.5185 31.8727Z" fill="black"/>
<path d="M49.2042 48.4257L48.3579 49.2686L32.8496 33.7015L33.2727 33.2801L33.6959 32.8586L49.2042 48.4257Z" fill="black"/>
<path d="M33.7027 31.9007L50.1725 48.4304L48.3591 50.2371L31.8893 33.7073L33.7027 31.9007Z" fill="black"/>
<path d="M48.4678 2.03365L49.3101 2.88044L33.7315 18.375L32.8892 17.5282L48.4678 2.03365Z" fill="black"/>
<path d="M48.4682 1.06791L50.2734 2.88278L33.729 19.3379L32.8264 18.4305L31.9238 17.523L48.4682 1.06791Z" fill="black"/>
<path d="M17.5287 18.3503L1.99842 2.8074L2.84333 1.96325L18.3736 17.5062M17.5287 18.3503L32.8496 33.7015M17.5287 18.3503L17.9511 17.9282M18.3736 17.5062L33.6959 32.8586M18.3736 17.5062L17.9511 17.9282M19.3408 17.5065L2.84776 1L1.03691 2.80924L17.53 19.3157M19.3408 17.5065L17.53 19.3157M19.3408 17.5065L33.7027 31.9007M17.53 19.3157L31.8893 33.7073M18.3624 33.6808L2.80796 49.1995L1.96436 48.3541L17.5188 32.8353M18.3624 33.6808L33.7315 18.375M18.3624 33.6808L17.9406 33.2581M17.5188 32.8353L32.8264 18.4305M17.5188 32.8353L17.9406 33.2581M19.3266 33.6848L17.5185 31.8727M19.3266 33.6848L2.80785 50.1656L0.999825 48.3536L17.5185 31.8727M19.3266 33.6848L33.729 19.3379M17.5185 31.8727L31.9238 17.523M33.6959 32.8586L49.2042 48.4257L48.3579 49.2686L32.8496 33.7015M33.6959 32.8586L33.2727 33.2801M32.8496 33.7015L33.2727 33.2801M33.7027 31.9007L50.1725 48.4304L48.3591 50.2371L31.8893 33.7073M33.7027 31.9007L31.8893 33.7073M32.8892 17.5282L48.4678 2.03365L49.3101 2.88044L33.7315 18.375M32.8892 17.5282L33.7315 18.375M32.8892 17.5282L17.9406 33.2581M31.9238 17.523L48.4682 1.06791L50.2734 2.88278L33.729 19.3379M31.9238 17.523L32.8264 18.4305M33.729 19.3379L32.8264 18.4305M33.2727 33.2801L17.9511 17.9282" stroke="black"/>
</svg>
