<svg width="51" height="51" viewBox="0 0 51 51" fill="none" xmlns="http://www.w3.org/2000/svg">
<path d="M1.84706 2.70633L2.69196 1.86217L18.2222 17.4051L17.7998 17.8272L17.3773 18.2492L1.84706 2.70633Z" fill="#FF6100"/>
<path d="M2.69639 0.898926L19.1895 17.4054L17.3786 19.2147L0.885548 2.70817L2.69639 0.898926Z" fill="#FF6100"/>
<path d="M2.65659 49.0985L1.813 48.253L17.3674 32.7342L17.7892 33.157L18.211 33.5797L2.65659 49.0985Z" fill="#FF6100"/>
<path d="M17.3672 31.7717L19.1752 33.5837L2.65648 50.0646L0.848457 48.2525L17.3672 31.7717Z" fill="#FF6100"/>
<path d="M49.0528 48.3246L48.2066 49.1676L32.6983 33.6005L33.1214 33.179L33.5445 32.7575L49.0528 48.3246Z" fill="#FF6100"/>
<path d="M33.5514 31.7996L50.0211 48.3294L48.2077 50.136L31.738 33.6063L33.5514 31.7996Z" fill="#FF6100"/>
<path d="M48.3164 1.93257L49.1587 2.77936L33.5801 18.2739L32.7378 17.4272L48.3164 1.93257Z" fill="#FF6100"/>
<path d="M48.3169 0.966832L50.1221 2.7817L33.5777 19.2368L32.6751 18.3294L31.7725 17.422L48.3169 0.966832Z" fill="#FF6100"/>
<path d="M17.3773 18.2492L1.84706 2.70633L2.69196 1.86217L18.2222 17.4051M17.3773 18.2492L32.6983 33.6005M17.3773 18.2492L17.7998 17.8272M18.2222 17.4051L33.5445 32.7575M18.2222 17.4051L17.7998 17.8272M19.1895 17.4054L2.69639 0.898926L0.885548 2.70817L17.3786 19.2147M19.1895 17.4054L17.3786 19.2147M19.1895 17.4054L33.5514 31.7996M17.3786 19.2147L31.738 33.6063M18.211 33.5797L2.65659 49.0985L1.813 48.253L17.3674 32.7342M18.211 33.5797L33.5801 18.2739M18.211 33.5797L17.7892 33.157M17.3674 32.7342L32.6751 18.3294M17.3674 32.7342L17.7892 33.157M19.1752 33.5837L17.3672 31.7717M19.1752 33.5837L2.65648 50.0646L0.848457 48.2525L17.3672 31.7717M19.1752 33.5837L33.5777 19.2368M17.3672 31.7717L31.7725 17.422M33.5445 32.7575L49.0528 48.3246L48.2066 49.1676L32.6983 33.6005M33.5445 32.7575L33.1214 33.179M32.6983 33.6005L33.1214 33.179M33.5514 31.7996L50.0211 48.3294L48.2077 50.136L31.738 33.6063M33.5514 31.7996L31.738 33.6063M32.7378 17.4272L48.3164 1.93257L49.1587 2.77936L33.5801 18.2739M32.7378 17.4272L33.5801 18.2739M32.7378 17.4272L17.7892 33.157M31.7725 17.422L48.3169 0.966832L50.1221 2.7817L33.5777 19.2368M31.7725 17.422L32.6751 18.3294M33.5777 19.2368L32.6751 18.3294M33.1214 33.179L17.7998 17.8272" stroke="#FF6100"/>
</svg>
