<svg width="3196" height="151" viewBox="0 0 3196 151" fill="none" xmlns="http://www.w3.org/2000/svg">
<rect x="21" width="150" height="21" transform="rotate(90 21 0)" fill="black"/>
<rect x="554" y="1" width="150" height="21" transform="rotate(90 554 1)" fill="black"/>
<rect x="1087" y="0.775879" width="150" height="21" transform="rotate(90 1087 0.775879)" fill="black"/>
<rect x="2153" y="0.775879" width="150" height="21" transform="rotate(90 2153 0.775879)" fill="black"/>
<rect x="1620" y="0.775879" width="150" height="21" transform="rotate(90 1620 0.775879)" fill="black"/>
<rect x="2686" y="0.775879" width="150" height="21" transform="rotate(90 2686 0.775879)" fill="black"/>
<rect x="79" width="150" height="22" transform="rotate(90 79 0)" fill="black"/>
<rect x="612" y="1" width="150" height="22" transform="rotate(90 612 1)" fill="black"/>
<rect x="1145" y="0.775879" width="150" height="22" transform="rotate(90 1145 0.775879)" fill="black"/>
<rect x="2211" y="0.775879" width="150" height="22" transform="rotate(90 2211 0.775879)" fill="black"/>
<rect x="1678" y="0.775879" width="150" height="22" transform="rotate(90 1678 0.775879)" fill="black"/>
<rect x="2744" y="0.775879" width="150" height="22" transform="rotate(90 2744 0.775879)" fill="black"/>
<rect x="136" width="150" height="21" transform="rotate(90 136 0)" fill="black"/>
<rect x="669" y="1" width="150" height="21" transform="rotate(90 669 1)" fill="black"/>
<rect x="1202" y="0.775879" width="150" height="21" transform="rotate(90 1202 0.775879)" fill="black"/>
<rect x="2268" y="0.775879" width="150" height="21" transform="rotate(90 2268 0.775879)" fill="black"/>
<rect x="1735" y="0.775879" width="150" height="21" transform="rotate(90 1735 0.775879)" fill="black"/>
<rect x="2801" y="0.775879" width="150" height="21" transform="rotate(90 2801 0.775879)" fill="black"/>
<path d="M179.39 56.9159H208.09V66.3659H190.03V105.776H179.39V56.9159ZM233.17 106.616C229.95 106.616 227.01 106.079 224.35 105.006C221.69 103.933 219.426 102.346 217.56 100.246C215.693 98.0992 214.246 95.4625 213.22 92.3359C212.193 89.1625 211.68 85.4992 211.68 81.3459C211.68 77.1925 212.193 73.5525 213.22 70.4259C214.246 67.2525 215.693 64.6159 217.56 62.5159C219.426 60.3692 221.69 58.7592 224.35 57.6859C227.01 56.6125 229.95 56.0759 233.17 56.0759C236.39 56.0759 239.33 56.6125 241.99 57.6859C244.65 58.7592 246.913 60.3692 248.78 62.5159C250.646 64.6159 252.093 67.2525 253.12 70.4259C254.146 73.5525 254.66 77.1925 254.66 81.3459C254.66 85.4992 254.146 89.1625 253.12 92.3359C252.093 95.4625 250.646 98.0992 248.78 100.246C246.913 102.346 244.65 103.933 241.99 105.006C239.33 106.079 236.39 106.616 233.17 106.616ZM233.17 97.1659C236.39 97.1659 238.886 96.1159 240.66 94.0159C242.48 91.9159 243.39 88.9059 243.39 84.9859V77.7059C243.39 73.7859 242.48 70.7759 240.66 68.6759C238.886 66.5759 236.39 65.5259 233.17 65.5259C229.95 65.5259 227.43 66.5759 225.61 68.6759C223.836 70.7759 222.95 73.7859 222.95 77.7059V84.9859C222.95 88.9059 223.836 91.9159 225.61 94.0159C227.43 96.1159 229.95 97.1659 233.17 97.1659ZM280.083 56.9159H290.723V76.3759H297.793L305.073 62.7259C306.147 60.7659 307.337 59.3192 308.643 58.3859C309.997 57.4059 311.723 56.9159 313.823 56.9159H318.163V66.3659H313.823L308.783 75.8859C308.13 77.1459 307.383 78.1259 306.543 78.8259C305.75 79.4792 304.793 79.9925 303.673 80.3659V80.7859C304.887 81.0192 305.913 81.4859 306.753 82.1859C307.64 82.8392 308.41 83.8425 309.063 85.1959L314.803 96.3259L319.143 96.3259V105.776H313.613C311.653 105.776 310.02 105.356 308.713 104.516C307.453 103.676 306.24 102.113 305.073 99.8259L297.793 85.7559H290.723V105.776H280.083V56.9159ZM373.123 85.7559H354.503V105.776L343.863 105.776V56.9159H354.503V76.3759H373.123V56.9159H383.763V105.776H373.123V85.7559ZM424.617 105.776L421.117 94.1559H404.807L401.307 105.776H390.527L406.627 56.9159H419.787L435.677 105.776H424.617ZM413.067 66.5759H412.717L407.327 85.1259H418.527L413.067 66.5759ZM478.977 73.7159H478.767L475.197 80.8559L465.677 98.1459L456.367 80.9259L452.657 73.2259H452.447V105.776H442.437V56.9159L453.707 56.9159L465.677 79.8059H465.817L477.647 56.9159L488.987 56.9159V105.776H478.977V73.7159Z" fill="black"/>
<path d="M712.39 56.9159H741.09V66.3659H723.03V105.776H712.39V56.9159ZM766.17 106.616C762.95 106.616 760.01 106.079 757.35 105.006C754.69 103.933 752.426 102.346 750.56 100.246C748.693 98.0992 747.246 95.4625 746.22 92.3359C745.193 89.1625 744.68 85.4992 744.68 81.3459C744.68 77.1925 745.193 73.5525 746.22 70.4259C747.246 67.2525 748.693 64.6159 750.56 62.5159C752.426 60.3692 754.69 58.7592 757.35 57.6859C760.01 56.6125 762.95 56.0759 766.17 56.0759C769.39 56.0759 772.33 56.6125 774.99 57.6859C777.65 58.7592 779.913 60.3692 781.78 62.5159C783.646 64.6159 785.093 67.2525 786.12 70.4259C787.146 73.5525 787.66 77.1925 787.66 81.3459C787.66 85.4992 787.146 89.1625 786.12 92.3359C785.093 95.4625 783.646 98.0992 781.78 100.246C779.913 102.346 777.65 103.933 774.99 105.006C772.33 106.079 769.39 106.616 766.17 106.616ZM766.17 97.1659C769.39 97.1659 771.886 96.1159 773.66 94.0159C775.48 91.9159 776.39 88.9059 776.39 84.9859V77.7059C776.39 73.7859 775.48 70.7759 773.66 68.6759C771.886 66.5759 769.39 65.5259 766.17 65.5259C762.95 65.5259 760.43 66.5759 758.61 68.6759C756.836 70.7759 755.95 73.7859 755.95 77.7059V84.9859C755.95 88.9059 756.836 91.9159 758.61 94.0159C760.43 96.1159 762.95 97.1659 766.17 97.1659ZM813.083 56.9159H823.723V76.3759H830.793L838.073 62.7259C839.147 60.7659 840.337 59.3192 841.643 58.3859C842.997 57.4059 844.723 56.9159 846.823 56.9159H851.163V66.3659H846.823L841.783 75.8859C841.13 77.1459 840.383 78.1259 839.543 78.8259C838.75 79.4792 837.793 79.9925 836.673 80.3659V80.7859C837.887 81.0192 838.913 81.4859 839.753 82.1859C840.64 82.8392 841.41 83.8425 842.063 85.1959L847.803 96.3259L852.143 96.3259V105.776H846.613C844.653 105.776 843.02 105.356 841.713 104.516C840.453 103.676 839.24 102.113 838.073 99.8259L830.793 85.7559H823.723V105.776H813.083V56.9159ZM906.123 85.7559H887.503V105.776L876.863 105.776V56.9159H887.503V76.3759H906.123V56.9159H916.763V105.776H906.123V85.7559ZM957.617 105.776L954.117 94.1559H937.807L934.307 105.776H923.527L939.627 56.9159H952.787L968.677 105.776H957.617ZM946.067 66.5759H945.717L940.327 85.1259H951.527L946.067 66.5759ZM1011.98 73.7159H1011.77L1008.2 80.8559L998.677 98.1459L989.367 80.9259L985.657 73.2259H985.447V105.776H975.437V56.9159L986.707 56.9159L998.677 79.8059H998.817L1010.65 56.9159L1021.99 56.9159V105.776H1011.98V73.7159Z" fill="black"/>
<path d="M1778.39 56.9159H1807.09V66.3659H1789.03V105.776H1778.39V56.9159ZM1832.17 106.616C1828.95 106.616 1826.01 106.079 1823.35 105.006C1820.69 103.933 1818.43 102.346 1816.56 100.246C1814.69 98.0992 1813.25 95.4625 1812.22 92.3359C1811.19 89.1625 1810.68 85.4992 1810.68 81.3459C1810.68 77.1925 1811.19 73.5525 1812.22 70.4259C1813.25 67.2525 1814.69 64.6159 1816.56 62.5159C1818.43 60.3692 1820.69 58.7592 1823.35 57.6859C1826.01 56.6125 1828.95 56.0759 1832.17 56.0759C1835.39 56.0759 1838.33 56.6125 1840.99 57.6859C1843.65 58.7592 1845.91 60.3692 1847.78 62.5159C1849.65 64.6159 1851.09 67.2525 1852.12 70.4259C1853.15 73.5525 1853.66 77.1925 1853.66 81.3459C1853.66 85.4992 1853.15 89.1625 1852.12 92.3359C1851.09 95.4625 1849.65 98.0992 1847.78 100.246C1845.91 102.346 1843.65 103.933 1840.99 105.006C1838.33 106.079 1835.39 106.616 1832.17 106.616ZM1832.17 97.1659C1835.39 97.1659 1837.89 96.1159 1839.66 94.0159C1841.48 91.9159 1842.39 88.9059 1842.39 84.9859V77.7059C1842.39 73.7859 1841.48 70.7759 1839.66 68.6759C1837.89 66.5759 1835.39 65.5259 1832.17 65.5259C1828.95 65.5259 1826.43 66.5759 1824.61 68.6759C1822.84 70.7759 1821.95 73.7859 1821.95 77.7059V84.9859C1821.95 88.9059 1822.84 91.9159 1824.61 94.0159C1826.43 96.1159 1828.95 97.1659 1832.17 97.1659ZM1879.08 56.9159H1889.72V76.3759H1896.79L1904.07 62.7259C1905.15 60.7659 1906.34 59.3192 1907.64 58.3859C1909 57.4059 1910.72 56.9159 1912.82 56.9159H1917.16V66.3659H1912.82L1907.78 75.8859C1907.13 77.1459 1906.38 78.1259 1905.54 78.8259C1904.75 79.4792 1903.79 79.9925 1902.67 80.3659V80.7859C1903.89 81.0192 1904.91 81.4859 1905.75 82.1859C1906.64 82.8392 1907.41 83.8425 1908.06 85.1959L1913.8 96.3259L1918.14 96.3259V105.776H1912.61C1910.65 105.776 1909.02 105.356 1907.71 104.516C1906.45 103.676 1905.24 102.113 1904.07 99.8259L1896.79 85.7559H1889.72V105.776H1879.08V56.9159ZM1972.12 85.7559H1953.5V105.776L1942.86 105.776V56.9159H1953.5V76.3759H1972.12V56.9159H1982.76V105.776H1972.12V85.7559ZM2023.62 105.776L2020.12 94.1559H2003.81L2000.31 105.776H1989.53L2005.63 56.9159H2018.79L2034.68 105.776H2023.62ZM2012.07 66.5759H2011.72L2006.33 85.1259H2017.53L2012.07 66.5759ZM2077.98 73.7159H2077.77L2074.2 80.8559L2064.68 98.1459L2055.37 80.9259L2051.66 73.2259H2051.45V105.776H2041.44V56.9159L2052.71 56.9159L2064.68 79.8059H2064.82L2076.65 56.9159L2087.99 56.9159V105.776H2077.98V73.7159Z" fill="black"/>
<path d="M1245.39 57.14H1274.09V66.59H1256.03V106H1245.39V57.14ZM1299.17 106.84C1295.95 106.84 1293.01 106.303 1290.35 105.23C1287.69 104.157 1285.43 102.57 1283.56 100.47C1281.69 98.3233 1280.25 95.6867 1279.22 92.56C1278.19 89.3867 1277.68 85.7233 1277.68 81.57C1277.68 77.4167 1278.19 73.7767 1279.22 70.65C1280.25 67.4767 1281.69 64.84 1283.56 62.74C1285.43 60.5933 1287.69 58.9833 1290.35 57.91C1293.01 56.8367 1295.95 56.3 1299.17 56.3C1302.39 56.3 1305.33 56.8367 1307.99 57.91C1310.65 58.9833 1312.91 60.5933 1314.78 62.74C1316.65 64.84 1318.09 67.4767 1319.12 70.65C1320.15 73.7767 1320.66 77.4167 1320.66 81.57C1320.66 85.7233 1320.15 89.3867 1319.12 92.56C1318.09 95.6867 1316.65 98.3233 1314.78 100.47C1312.91 102.57 1310.65 104.157 1307.99 105.23C1305.33 106.303 1302.39 106.84 1299.17 106.84ZM1299.17 97.39C1302.39 97.39 1304.89 96.34 1306.66 94.24C1308.48 92.14 1309.39 89.13 1309.39 85.21V77.93C1309.39 74.01 1308.48 71 1306.66 68.9C1304.89 66.8 1302.39 65.75 1299.17 65.75C1295.95 65.75 1293.43 66.8 1291.61 68.9C1289.84 71 1288.95 74.01 1288.95 77.93V85.21C1288.95 89.13 1289.84 92.14 1291.61 94.24C1293.43 96.34 1295.95 97.39 1299.17 97.39ZM1346.08 57.14H1356.72V76.6H1363.79L1371.07 62.95C1372.15 60.99 1373.34 59.5433 1374.64 58.61C1376 57.63 1377.72 57.14 1379.82 57.14H1384.16V66.59H1379.82L1374.78 76.11C1374.13 77.37 1373.38 78.35 1372.54 79.05C1371.75 79.7033 1370.79 80.2167 1369.67 80.59V81.01C1370.89 81.2433 1371.91 81.71 1372.75 82.41C1373.64 83.0633 1374.41 84.0667 1375.06 85.42L1380.8 96.55L1385.14 96.55V106H1379.61C1377.65 106 1376.02 105.58 1374.71 104.74C1373.45 103.9 1372.24 102.337 1371.07 100.05L1363.79 85.98H1356.72V106H1346.08V57.14ZM1439.12 85.98H1420.5V106L1409.86 106V57.14H1420.5V76.6H1439.12V57.14H1449.76V106H1439.12V85.98ZM1490.62 106L1487.12 94.38H1470.81L1467.31 106H1456.53L1472.63 57.14H1485.79L1501.68 106H1490.62ZM1479.07 66.8H1478.72L1473.33 85.35H1484.53L1479.07 66.8ZM1544.98 73.94H1544.77L1541.2 81.08L1531.68 98.37L1522.37 81.15L1518.66 73.45H1518.45V106H1508.44V57.14L1519.71 57.14L1531.68 80.03H1531.82L1543.65 57.14L1554.99 57.14V106H1544.98V73.94Z" fill="black"/>
<path d="M2311.39 57.14H2340.09V66.59H2322.03V106H2311.39V57.14ZM2365.17 106.84C2361.95 106.84 2359.01 106.303 2356.35 105.23C2353.69 104.157 2351.43 102.57 2349.56 100.47C2347.69 98.3233 2346.25 95.6867 2345.22 92.56C2344.19 89.3867 2343.68 85.7233 2343.68 81.57C2343.68 77.4167 2344.19 73.7767 2345.22 70.65C2346.25 67.4767 2347.69 64.84 2349.56 62.74C2351.43 60.5933 2353.69 58.9833 2356.35 57.91C2359.01 56.8367 2361.95 56.3 2365.17 56.3C2368.39 56.3 2371.33 56.8367 2373.99 57.91C2376.65 58.9833 2378.91 60.5933 2380.78 62.74C2382.65 64.84 2384.09 67.4767 2385.12 70.65C2386.15 73.7767 2386.66 77.4167 2386.66 81.57C2386.66 85.7233 2386.15 89.3867 2385.12 92.56C2384.09 95.6867 2382.65 98.3233 2380.78 100.47C2378.91 102.57 2376.65 104.157 2373.99 105.23C2371.33 106.303 2368.39 106.84 2365.17 106.84ZM2365.17 97.39C2368.39 97.39 2370.89 96.34 2372.66 94.24C2374.48 92.14 2375.39 89.13 2375.39 85.21V77.93C2375.39 74.01 2374.48 71 2372.66 68.9C2370.89 66.8 2368.39 65.75 2365.17 65.75C2361.95 65.75 2359.43 66.8 2357.61 68.9C2355.84 71 2354.95 74.01 2354.95 77.93V85.21C2354.95 89.13 2355.84 92.14 2357.61 94.24C2359.43 96.34 2361.95 97.39 2365.17 97.39ZM2412.08 57.14H2422.72V76.6H2429.79L2437.07 62.95C2438.15 60.99 2439.34 59.5433 2440.64 58.61C2442 57.63 2443.72 57.14 2445.82 57.14H2450.16V66.59H2445.82L2440.78 76.11C2440.13 77.37 2439.38 78.35 2438.54 79.05C2437.75 79.7033 2436.79 80.2167 2435.67 80.59V81.01C2436.89 81.2433 2437.91 81.71 2438.75 82.41C2439.64 83.0633 2440.41 84.0667 2441.06 85.42L2446.8 96.55L2451.14 96.55V106H2445.61C2443.65 106 2442.02 105.58 2440.71 104.74C2439.45 103.9 2438.24 102.337 2437.07 100.05L2429.79 85.98H2422.72V106H2412.08V57.14ZM2505.12 85.98H2486.5V106L2475.86 106V57.14H2486.5V76.6H2505.12V57.14H2515.76V106H2505.12V85.98ZM2556.62 106L2553.12 94.38H2536.81L2533.31 106H2522.53L2538.63 57.14H2551.79L2567.68 106H2556.62ZM2545.07 66.8H2544.72L2539.33 85.35H2550.53L2545.07 66.8ZM2610.98 73.94H2610.77L2607.2 81.08L2597.68 98.37L2588.37 81.15L2584.66 73.45H2584.45V106H2574.44V57.14L2585.71 57.14L2597.68 80.03H2597.82L2609.65 57.14L2620.99 57.14V106H2610.98V73.94Z" fill="black"/>
<path d="M2844.39 57.14H2873.09V66.59H2855.03V106H2844.39V57.14ZM2898.17 106.84C2894.95 106.84 2892.01 106.303 2889.35 105.23C2886.69 104.157 2884.43 102.57 2882.56 100.47C2880.69 98.3233 2879.25 95.6867 2878.22 92.56C2877.19 89.3867 2876.68 85.7233 2876.68 81.57C2876.68 77.4167 2877.19 73.7767 2878.22 70.65C2879.25 67.4767 2880.69 64.84 2882.56 62.74C2884.43 60.5933 2886.69 58.9833 2889.35 57.91C2892.01 56.8367 2894.95 56.3 2898.17 56.3C2901.39 56.3 2904.33 56.8367 2906.99 57.91C2909.65 58.9833 2911.91 60.5933 2913.78 62.74C2915.65 64.84 2917.09 67.4767 2918.12 70.65C2919.15 73.7767 2919.66 77.4167 2919.66 81.57C2919.66 85.7233 2919.15 89.3867 2918.12 92.56C2917.09 95.6867 2915.65 98.3233 2913.78 100.47C2911.91 102.57 2909.65 104.157 2906.99 105.23C2904.33 106.303 2901.39 106.84 2898.17 106.84ZM2898.17 97.39C2901.39 97.39 2903.89 96.34 2905.66 94.24C2907.48 92.14 2908.39 89.13 2908.39 85.21V77.93C2908.39 74.01 2907.48 71 2905.66 68.9C2903.89 66.8 2901.39 65.75 2898.17 65.75C2894.95 65.75 2892.43 66.8 2890.61 68.9C2888.84 71 2887.95 74.01 2887.95 77.93V85.21C2887.95 89.13 2888.84 92.14 2890.61 94.24C2892.43 96.34 2894.95 97.39 2898.17 97.39ZM2945.08 57.14H2955.72V76.6H2962.79L2970.07 62.95C2971.15 60.99 2972.34 59.5433 2973.64 58.61C2975 57.63 2976.72 57.14 2978.82 57.14H2983.16V66.59H2978.82L2973.78 76.11C2973.13 77.37 2972.38 78.35 2971.54 79.05C2970.75 79.7033 2969.79 80.2167 2968.67 80.59V81.01C2969.89 81.2433 2970.91 81.71 2971.75 82.41C2972.64 83.0633 2973.41 84.0667 2974.06 85.42L2979.8 96.55L2984.14 96.55V106H2978.61C2976.65 106 2975.02 105.58 2973.71 104.74C2972.45 103.9 2971.24 102.337 2970.07 100.05L2962.79 85.98H2955.72V106H2945.08V57.14ZM3038.12 85.98H3019.5V106L3008.86 106V57.14H3019.5V76.6H3038.12V57.14H3048.76V106H3038.12V85.98ZM3089.62 106L3086.12 94.38H3069.81L3066.31 106H3055.53L3071.63 57.14H3084.79L3100.68 106H3089.62ZM3078.07 66.8H3077.72L3072.33 85.35H3083.53L3078.07 66.8ZM3143.98 73.94H3143.77L3140.2 81.08L3130.68 98.37L3121.37 81.15L3117.66 73.45H3117.45V106H3107.44V57.14L3118.71 57.14L3130.68 80.03H3130.82L3142.65 57.14L3153.99 57.14V106H3143.98V73.94Z" fill="black"/>
</svg>
