<svg width="69" height="69" viewBox="0 0 69 69" fill="none" xmlns="http://www.w3.org/2000/svg">
<path d="M35.1004 1.68117H33.906V23.6531H35.1004V1.68117Z" fill="#FF6100"/>
<path d="M35.7816 1H33.2217V24.334H35.7816V1Z" fill="#FF6100"/>
<path d="M58.1235 11.7064L57.2785 10.8622L41.7483 26.4052L42.5932 27.2493L58.1235 11.7064Z" fill="#FF6100"/>
<path d="M57.2741 9.899L40.781 26.4055L42.5919 28.2147L59.085 11.7082L57.2741 9.899Z" fill="#FF6100"/>
<path d="M67.3224 35.071L67.3215 33.8766L45.3489 33.8934L45.3498 35.0878L67.3224 35.071Z" fill="#FF6100"/>
<path d="M68 33.2046H44.6651V35.7644H68V33.2046Z" fill="#FF6100"/>
<path d="M57.3139 58.0985L58.1575 57.2531L42.6031 41.7343L41.7595 42.5798L57.3139 58.0985Z" fill="#FF6100"/>
<path d="M42.6033 40.7717L40.7953 42.5838L57.314 59.0646L59.1221 57.2526L42.6033 40.7717Z" fill="#FF6100"/>
<path d="M33.9554 67.3157L35.1498 67.3139L35.1162 45.342L33.9218 45.3438L33.9554 67.3157Z" fill="#FF6100"/>
<path d="M35.7996 44.6621L33.2397 44.666L33.2753 68L35.8352 67.9961L35.7996 44.6621Z" fill="#FF6100"/>
<path d="M10.9177 57.3247L11.7639 58.1676L27.2722 42.6005L26.426 41.7576L10.9177 57.3247Z" fill="#FF6100"/>
<path d="M26.4191 40.7997L9.94939 57.3294L11.7628 59.1361L28.2325 42.6063L26.4191 40.7997Z" fill="#FF6100"/>
<path d="M1.68397 33.9786L1.68671 35.1729L23.6594 35.1225L23.6566 33.9281L1.68397 33.9786Z" fill="#FF6100"/>
<path d="M24.3349 33.2435L1 33.2962L1.0058 35.8559L24.3406 35.8032L24.3349 33.2435Z" fill="#FF6100"/>
<path d="M11.6541 10.9326L10.8118 11.7794L26.3904 27.274L27.2327 26.4272L11.6541 10.9326Z" fill="#FF6100"/>
<path d="M11.6536 9.96691L9.84844 11.7818L26.3928 28.2369L28.198 26.422L11.6536 9.96691Z" fill="#FF6100"/>
<path d="M34.4324 39.814C37.2763 39.814 39.5818 37.5086 39.5818 34.6648C39.5818 31.821 37.2763 29.5157 34.4324 29.5157C31.5885 29.5157 29.2831 31.821 29.2831 34.6648C29.2831 37.5086 31.5885 39.814 34.4324 39.814Z" fill="#FF6100"/>
<path d="M35.1004 1.68117H33.906V23.6531H35.1004V1.68117Z" stroke="#FF6100"/>
<path d="M35.7816 1H33.2217V24.334H35.7816V1Z" stroke="#FF6100"/>
<path d="M58.1235 11.7064L57.2785 10.8622L41.7483 26.4052L42.5932 27.2493L58.1235 11.7064Z" stroke="#FF6100"/>
<path d="M57.2741 9.899L40.781 26.4055L42.5919 28.2147L59.085 11.7082L57.2741 9.899Z" stroke="#FF6100"/>
<path d="M67.3224 35.071L67.3215 33.8766L45.3489 33.8934L45.3498 35.0878L67.3224 35.071Z" stroke="#FF6100"/>
<path d="M68 33.2046H44.6651V35.7644H68V33.2046Z" stroke="#FF6100"/>
<path d="M57.3139 58.0985L58.1575 57.2531L42.6031 41.7343L41.7595 42.5798L57.3139 58.0985Z" stroke="#FF6100"/>
<path d="M42.6033 40.7717L40.7953 42.5838L57.314 59.0646L59.1221 57.2526L42.6033 40.7717Z" stroke="#FF6100"/>
<path d="M33.9554 67.3157L35.1498 67.3139L35.1162 45.342L33.9218 45.3438L33.9554 67.3157Z" stroke="#FF6100"/>
<path d="M35.7996 44.6621L33.2397 44.666L33.2753 68L35.8352 67.9961L35.7996 44.6621Z" stroke="#FF6100"/>
<path d="M10.9177 57.3247L11.7639 58.1676L27.2722 42.6005L26.426 41.7576L10.9177 57.3247Z" stroke="#FF6100"/>
<path d="M26.4191 40.7997L9.94939 57.3294L11.7628 59.1361L28.2325 42.6063L26.4191 40.7997Z" stroke="#FF6100"/>
<path d="M1.68397 33.9786L1.68671 35.1729L23.6594 35.1225L23.6566 33.9281L1.68397 33.9786Z" stroke="#FF6100"/>
<path d="M24.3349 33.2435L1 33.2962L1.0058 35.8559L24.3406 35.8032L24.3349 33.2435Z" stroke="#FF6100"/>
<path d="M11.6541 10.9326L10.8118 11.7794L26.3904 27.274L27.2327 26.4272L11.6541 10.9326Z" stroke="#FF6100"/>
<path d="M11.6536 9.96691L9.84844 11.7818L26.3928 28.2369L28.198 26.422L11.6536 9.96691Z" stroke="#FF6100"/>
<path d="M34.4324 39.814C37.2763 39.814 39.5818 37.5086 39.5818 34.6648C39.5818 31.821 37.2763 29.5157 34.4324 29.5157C31.5885 29.5157 29.2831 31.821 29.2831 34.6648C29.2831 37.5086 31.5885 39.814 34.4324 39.814Z" stroke="#FF6100"/>
</svg>
