<svg width="237" height="96" viewBox="0 0 237 96" fill="none" xmlns="http://www.w3.org/2000/svg">
<path d="M11.6778 26.1H6.9421V46.2268H0V0.43042H6.9421V18.7812H11.6778V0.43042H18.6199V46.2806H11.6778V26.1Z" fill="#FF6100"/>
<path d="M30.5659 46.765H29.2205C23.6776 46.765 20.7178 43.7514 20.7178 38.1008V28.8985H27.6061V36.9169C27.6061 39.0157 28.3056 40.1458 29.8663 40.1458C31.5345 40.1458 32.1265 39.0157 32.1265 36.2173V35.1948C32.1265 31.9121 31.8036 30.782 29.2743 27.4993L24.9153 21.7412C21.9555 17.9203 21.0945 14.9605 21.0945 10.3862V8.93324C21.0945 2.85218 24.1619 0 29.651 0H30.9426C36.6469 0 38.9072 2.52929 38.9072 7.96458V15.4986H32.1803V8.87943C32.1803 7.3188 31.8574 6.18869 30.1892 6.18869C28.5209 6.18869 28.1442 7.21117 28.1442 9.41758V10.2786C28.1442 12.8617 28.6285 14.2609 30.9964 17.3283L35.4092 23.0327C38.5304 27.1226 39.5529 29.4367 39.5529 34.6029V36.0559C39.5529 42.7827 36.6469 46.765 30.5659 46.765Z" fill="#FF6100"/>
<path d="M57.3655 0.43042V7.10345H48.486V19.1041H55.4281V26.0462H48.486V39.2847H57.7422V46.2268H41.5439V0.43042H57.3655Z" fill="#FF6100"/>
<path d="M76.5245 37.6165H71.466L70.5511 46.2269H64.3086L69.9053 0.376709H78.139L84.1124 46.2269H77.3856L76.5245 37.6165ZM75.7711 30.782L73.9414 13.8304L72.1655 30.782H75.7711Z" fill="#FF6100"/>
<path d="M92.239 46.2806H85.2969V0.43042H96.598C101.226 0.43042 103.54 2.42156 103.54 7.53396V15.66C103.54 19.4808 101.764 20.9338 100.526 21.5258C102.087 22.2254 103.54 23.4631 103.54 26.5306V42.6212C103.54 44.4509 103.917 45.3119 104.24 46.0115V46.3344H97.3514C97.0285 45.85 96.6518 45.0428 96.6518 42.5673V28.6832C96.6518 26.6382 96.2751 25.7772 94.0687 25.7772H92.2928L92.239 46.2806ZM92.239 19.2656H94.0687C96.006 19.2656 96.598 18.0278 96.598 15.9829V9.57892C96.598 7.58778 96.1675 6.61911 94.0687 6.61911H92.239V19.2656Z" fill="#FF6100"/>
<path d="M117.585 7.04963V46.2268H110.697V7.04963H104.831V0.43042H123.451V7.10345L117.585 7.04963Z" fill="#FF6100"/>
<path d="M142.07 37.6165H137.012L136.097 46.2269H129.854L135.451 0.376709H143.685L149.658 46.2269H142.931L142.07 37.6165ZM141.317 30.782L139.487 13.8304L137.711 30.782H141.317Z" fill="#FF6100"/>
<path d="M157.085 0.43042L163.059 25.0238V0.43042H169.409V46.2806H163.758L157.085 19.9114V46.2806H150.789V0.43042H157.085Z" fill="#FF6100"/>
<path d="M171.992 0.43042H182.701C188.675 0.43042 190.504 3.82075 190.504 9.25604V37.1859C190.504 42.7826 188.406 46.2806 182.701 46.2806H172.046V0.43042H171.992ZM178.988 39.6075H180.656C182.755 39.6075 183.347 38.4774 183.347 36.0558V10.2247C183.347 7.58778 182.648 6.67293 180.925 6.67293H178.934V39.6075H178.988V39.6075Z" fill="#FF6100"/>
<path d="M0 48.6484H10.6553C16.6288 48.6484 18.4585 52.0388 18.4585 57.4741V85.4039C18.4585 91.0006 16.3597 94.4986 10.6553 94.4986H0V48.6484ZM6.9421 87.8794H8.61036C10.7091 87.8794 11.3011 86.7493 11.3011 84.3276V58.4965C11.3011 55.8596 10.6015 54.9448 8.87943 54.9448H6.88829V87.8794H6.9421Z" fill="#FF6100"/>
<path d="M36.8099 48.6484V55.3215H27.9305V67.3221H34.8726V74.2642H27.9305V87.5027H37.1866V94.4448H20.9346V48.6484H36.8099Z" fill="#FF6100"/>
<path d="M48.2719 94.9828H46.9266C41.3836 94.9828 38.4238 91.9692 38.4238 86.3186V77.1163H45.3121V85.1347C45.3121 87.2335 46.0117 88.3636 47.5723 88.3636C49.2406 88.3636 49.8325 87.2335 49.8325 84.4351V83.4126C49.8325 80.1299 49.5097 78.9998 46.9804 75.7171L42.5676 70.0666C39.6078 66.2457 38.7467 63.2859 38.7467 58.7117V57.2587C38.7467 51.1776 41.8142 48.3254 47.3033 48.3254H48.5948C54.353 48.3254 56.5594 50.8547 56.5594 56.29V63.8241H49.8325V57.2049C49.8325 55.6442 49.5097 54.5141 47.8414 54.5141C46.1731 54.5141 45.7964 55.5366 45.7964 57.743V58.6041C45.7964 61.1872 46.2808 62.5863 48.6486 65.6538L53.0614 71.3581C56.1827 75.4481 57.2052 77.7621 57.2052 82.9283V84.3813C57.259 91.0005 54.353 94.9828 48.2719 94.9828Z" fill="#FF6100"/>
<path d="M66.1921 94.4986H59.25V48.6484H66.1921V94.4986Z" fill="#FF6100"/>
<path d="M75.2326 95.1442C71.1427 95.1442 68.5596 91.4848 68.5596 86.7491V58.0659C68.5596 52.9535 70.5507 48.2178 77.1161 48.2178H78.4615C85.9417 48.2178 86.8028 53.0611 86.8028 58.4964V63.1783H80.0221V58.0121C80.0221 55.9671 79.5378 54.8908 77.8157 54.8908C76.3627 54.8908 75.6631 56.0209 75.6631 58.0121V84.8118C75.6631 86.9644 76.5242 88.0945 77.9233 88.0945C79.6992 88.0945 80.5064 86.8567 80.5064 85.1347V73.6721H77.3852V66.6224H87.1256V94.4984H83.1972C83.1434 94.2294 82.6052 91.9691 82.0132 89.978C81.5289 91.5386 79.1611 95.0904 75.6631 95.0904H75.2326V95.1442V95.1442Z" fill="#FF6100"/>
<path d="M95.8442 48.6484L101.818 73.2418V48.6484H108.168V94.4986H102.517L95.8442 68.1294V94.4986H89.5479V48.6484H95.8442Z" fill="#FF6100"/>
<path d="M126.357 94.9828H125.012C119.469 94.9828 116.509 91.9692 116.509 86.3186V77.1163H123.397V85.1347C123.397 87.2335 124.097 88.3636 125.657 88.3636C127.326 88.3636 127.918 87.2335 127.918 84.4351V83.4126C127.918 80.1299 127.595 78.9998 125.065 75.7171L120.653 70.0666C117.693 66.2457 116.832 63.2859 116.832 58.7117V57.2587C116.832 51.1776 119.899 48.3254 125.388 48.3254H126.68C132.384 48.3254 134.644 50.8547 134.644 56.29V63.8241H127.918V57.2049C127.918 55.6442 127.595 54.5141 125.926 54.5141C124.258 54.5141 123.881 55.5366 123.881 57.743V58.6041C123.881 61.1872 124.366 62.5863 126.734 65.6538L131.146 71.3581C134.268 75.4481 135.29 77.7621 135.29 82.9283V84.3813C135.344 91.0005 132.438 94.9828 126.357 94.9828Z" fill="#FF6100"/>
<path d="M148.69 85.1886V74.5333H155.525V85.1348C155.525 90.0857 153.91 95.0367 147.184 95.0367H145.623C138.573 95.0367 137.066 89.9781 137.066 85.35V57.3664C137.066 52.6845 139.111 48.1641 145.408 48.1641H147.022C154.664 48.1641 155.525 53.2226 155.525 57.6893V65.8691H148.69V57.7969C148.69 55.8058 148.098 54.7833 146.323 54.7833C144.6 54.7833 144.17 55.7519 144.17 57.7969V85.0271C144.17 87.0721 144.87 88.1484 146.376 88.1484C148.098 88.3098 148.69 87.0721 148.69 85.1886Z" fill="#FF6100"/>
<path d="M169.463 74.3719H164.727V94.4986H157.785V48.6484H164.727V66.9993H169.463V48.6484H176.405V94.4986H169.463V74.3719Z" fill="#FF6100"/>
<path d="M197.877 84.2736C197.877 90.6776 195.724 95.0366 188.997 95.0366H187.813C181.14 95.0366 178.826 90.6776 178.826 84.2736V58.7655C178.826 52.4153 181.248 48.2178 187.759 48.2178H188.943C195.724 48.2178 197.877 52.4153 197.877 58.7116V84.2736V84.2736ZM190.773 58.3888C190.773 55.9671 189.966 54.8908 188.351 54.8908C186.575 54.8908 185.876 56.0747 185.876 58.3888V84.758C185.876 86.7491 186.414 88.2559 188.405 88.2559C190.235 88.2559 190.773 86.6953 190.773 84.758V58.3888V58.3888Z" fill="#FF6100"/>
<path d="M219.133 84.2736C219.133 90.6776 216.981 95.0366 210.254 95.0366H209.07C202.397 95.0366 200.083 90.6776 200.083 84.2736V58.7655C200.083 52.4153 202.505 48.2178 209.016 48.2178H210.2C216.981 48.2178 219.133 52.4153 219.133 58.7116V84.2736V84.2736ZM212.03 58.3888C212.03 55.9671 211.223 54.8908 209.608 54.8908C207.832 54.8908 207.133 56.0747 207.133 58.3888V84.758C207.133 86.7491 207.671 88.2559 209.662 88.2559C211.492 88.2559 212.03 86.6953 212.03 84.758V58.3888V58.3888Z" fill="#FF6100"/>
<path d="M228.497 48.6484V87.395H237V94.4986H221.555V48.6484H228.497Z" fill="#FF6100"/>
</svg>
