<svg width="2940" height="151" viewBox="0 0 2940 151" fill="none" xmlns="http://www.w3.org/2000/svg">
<rect x="21" width="150" height="21" transform="rotate(90 21 0)" fill="black"/>
<rect x="1482" width="150" height="21" transform="rotate(90 1482 0)" fill="black"/>
<rect x="1975" width="150" height="21" transform="rotate(90 1975 0)" fill="black"/>
<rect x="2468" width="150" height="21" transform="rotate(90 2468 0)" fill="black"/>
<rect x="503" y="1" width="150" height="21" transform="rotate(90 503 1)" fill="black"/>
<rect x="989" width="150" height="21" transform="rotate(90 989 0)" fill="black"/>
<rect x="79" width="150" height="22" transform="rotate(90 79 0)" fill="black"/>
<rect x="1540" width="150" height="22" transform="rotate(90 1540 0)" fill="black"/>
<rect x="2033" width="150" height="22" transform="rotate(90 2033 0)" fill="black"/>
<rect x="2526" width="150" height="22" transform="rotate(90 2526 0)" fill="black"/>
<rect x="561" y="1" width="150" height="22" transform="rotate(90 561 1)" fill="black"/>
<rect x="1047" width="150" height="22" transform="rotate(90 1047 0)" fill="black"/>
<rect x="136" width="150" height="21" transform="rotate(90 136 0)" fill="black"/>
<rect x="1597" width="150" height="21" transform="rotate(90 1597 0)" fill="black"/>
<rect x="2090" width="150" height="21" transform="rotate(90 2090 0)" fill="black"/>
<rect x="2583" width="150" height="21" transform="rotate(90 2583 0)" fill="black"/>
<rect x="618" y="1" width="150" height="21" transform="rotate(90 618 1)" fill="black"/>
<rect x="1104" width="150" height="21" transform="rotate(90 1104 0)" fill="black"/>
<path d="M206.39 57.14H216.75V81.01L215.63 91.3H215.84L220.67 81.99L236.77 57.14H246.29V106H235.93V82.13L237.05 71.84H236.84L232.01 81.15L215.91 106H206.39V57.14ZM286.304 85.98H267.684V106H257.044V57.14H267.684V76.6H286.304V57.14H296.944V106H286.304V85.98ZM328.559 102.78H325.689C322.609 102.78 319.785 102.243 317.219 101.17C314.652 100.097 312.435 98.6267 310.569 96.76C308.749 94.8467 307.325 92.6067 306.299 90.04C305.272 87.4733 304.759 84.6967 304.759 81.71C304.759 78.7233 305.249 75.9467 306.229 73.38C307.255 70.8133 308.679 68.5733 310.499 66.66C312.319 64.7467 314.512 63.2533 317.079 62.18C319.645 61.06 322.515 60.5 325.689 60.5H328.559V54.2H339.339V60.5H342.209C345.382 60.5 348.252 61.06 350.819 62.18C353.385 63.2533 355.579 64.7467 357.399 66.66C359.219 68.5733 360.619 70.8133 361.599 73.38C362.625 75.9467 363.139 78.7233 363.139 81.71C363.139 84.6967 362.625 87.4733 361.599 90.04C360.572 92.6067 359.125 94.8467 357.259 96.76C355.439 98.6267 353.245 100.097 350.679 101.17C348.112 102.243 345.289 102.78 342.209 102.78H339.339V109.08H328.559V102.78ZM328.769 94.03V69.25H325.689C323.915 69.25 322.399 69.53 321.139 70.09C319.879 70.6033 318.852 71.3267 318.059 72.26C317.265 73.1467 316.659 74.22 316.239 75.48C315.865 76.6933 315.679 78.0233 315.679 79.47V83.81C315.679 86.75 316.495 89.2 318.129 91.16C319.809 93.0733 322.329 94.03 325.689 94.03H328.769ZM342.209 94.03C345.569 94.03 348.065 93.0733 349.699 91.16C351.379 89.2 352.219 86.75 352.219 83.81V79.47C352.219 78.0233 352.009 76.6933 351.589 75.48C351.215 74.22 350.632 73.1467 349.839 72.26C349.045 71.3267 347.995 70.6033 346.689 70.09C345.429 69.53 343.935 69.25 342.209 69.25H339.129V94.03H342.209ZM390.599 106.84C387.379 106.84 384.439 106.303 381.779 105.23C379.119 104.157 376.856 102.57 374.989 100.47C373.123 98.3233 371.676 95.6867 370.649 92.56C369.623 89.3867 369.109 85.7233 369.109 81.57C369.109 77.4167 369.623 73.7767 370.649 70.65C371.676 67.4767 373.123 64.84 374.989 62.74C376.856 60.5933 379.119 58.9833 381.779 57.91C384.439 56.8367 387.379 56.3 390.599 56.3C393.819 56.3 396.759 56.8367 399.419 57.91C402.079 58.9833 404.343 60.5933 406.209 62.74C408.076 64.84 409.523 67.4767 410.549 70.65C411.576 73.7767 412.089 77.4167 412.089 81.57C412.089 85.7233 411.576 89.3867 410.549 92.56C409.523 95.6867 408.076 98.3233 406.209 100.47C404.343 102.57 402.079 104.157 399.419 105.23C396.759 106.303 393.819 106.84 390.599 106.84ZM390.599 97.39C393.819 97.39 396.316 96.34 398.089 94.24C399.909 92.14 400.819 89.13 400.819 85.21V77.93C400.819 74.01 399.909 71 398.089 68.9C396.316 66.8 393.819 65.75 390.599 65.75C387.379 65.75 384.859 66.8 383.039 68.9C381.266 71 380.379 74.01 380.379 77.93V85.21C380.379 89.13 381.266 92.14 383.039 94.24C384.859 96.34 387.379 97.39 390.599 97.39Z" fill="black"/>
<path d="M690.39 57.14H700.75V81.01L699.63 91.3H699.84L704.67 81.99L720.77 57.14H730.29V106H719.93V82.13L721.05 71.84H720.84L716.01 81.15L699.91 106H690.39V57.14ZM770.304 85.98H751.684V106H741.044V57.14H751.684V76.6H770.304V57.14H780.944V106H770.304V85.98ZM812.559 102.78H809.689C806.609 102.78 803.785 102.243 801.219 101.17C798.652 100.097 796.435 98.6267 794.569 96.76C792.749 94.8467 791.325 92.6067 790.299 90.04C789.272 87.4733 788.759 84.6967 788.759 81.71C788.759 78.7233 789.249 75.9467 790.229 73.38C791.255 70.8133 792.679 68.5733 794.499 66.66C796.319 64.7467 798.512 63.2533 801.079 62.18C803.645 61.06 806.515 60.5 809.689 60.5H812.559V54.2H823.339V60.5H826.209C829.382 60.5 832.252 61.06 834.819 62.18C837.385 63.2533 839.579 64.7467 841.399 66.66C843.219 68.5733 844.619 70.8133 845.599 73.38C846.625 75.9467 847.139 78.7233 847.139 81.71C847.139 84.6967 846.625 87.4733 845.599 90.04C844.572 92.6067 843.125 94.8467 841.259 96.76C839.439 98.6267 837.245 100.097 834.679 101.17C832.112 102.243 829.289 102.78 826.209 102.78H823.339V109.08H812.559V102.78ZM812.769 94.03V69.25H809.689C807.915 69.25 806.399 69.53 805.139 70.09C803.879 70.6033 802.852 71.3267 802.059 72.26C801.265 73.1467 800.659 74.22 800.239 75.48C799.865 76.6933 799.679 78.0233 799.679 79.47V83.81C799.679 86.75 800.495 89.2 802.129 91.16C803.809 93.0733 806.329 94.03 809.689 94.03H812.769ZM826.209 94.03C829.569 94.03 832.065 93.0733 833.699 91.16C835.379 89.2 836.219 86.75 836.219 83.81V79.47C836.219 78.0233 836.009 76.6933 835.589 75.48C835.215 74.22 834.632 73.1467 833.839 72.26C833.045 71.3267 831.995 70.6033 830.689 70.09C829.429 69.53 827.935 69.25 826.209 69.25H823.129V94.03H826.209ZM874.599 106.84C871.379 106.84 868.439 106.303 865.779 105.23C863.119 104.157 860.856 102.57 858.989 100.47C857.123 98.3233 855.676 95.6867 854.649 92.56C853.623 89.3867 853.109 85.7233 853.109 81.57C853.109 77.4167 853.623 73.7767 854.649 70.65C855.676 67.4767 857.123 64.84 858.989 62.74C860.856 60.5933 863.119 58.9833 865.779 57.91C868.439 56.8367 871.379 56.3 874.599 56.3C877.819 56.3 880.759 56.8367 883.419 57.91C886.079 58.9833 888.343 60.5933 890.209 62.74C892.076 64.84 893.523 67.4767 894.549 70.65C895.576 73.7767 896.089 77.4167 896.089 81.57C896.089 85.7233 895.576 89.3867 894.549 92.56C893.523 95.6867 892.076 98.3233 890.209 100.47C888.343 102.57 886.079 104.157 883.419 105.23C880.759 106.303 877.819 106.84 874.599 106.84ZM874.599 97.39C877.819 97.39 880.316 96.34 882.089 94.24C883.909 92.14 884.819 89.13 884.819 85.21V77.93C884.819 74.01 883.909 71 882.089 68.9C880.316 66.8 877.819 65.75 874.599 65.75C871.379 65.75 868.859 66.8 867.039 68.9C865.266 71 864.379 74.01 864.379 77.93V85.21C864.379 89.13 865.266 92.14 867.039 94.24C868.859 96.34 871.379 97.39 874.599 97.39Z" fill="black"/>
<path d="M1180.39 57.14H1190.75V81.01L1189.63 91.3H1189.84L1194.67 81.99L1210.77 57.14H1220.29V106H1209.93V82.13L1211.05 71.84H1210.84L1206.01 81.15L1189.91 106H1180.39V57.14ZM1260.3 85.98H1241.68V106H1231.04V57.14H1241.68V76.6H1260.3V57.14H1270.94V106H1260.3V85.98ZM1302.56 102.78H1299.69C1296.61 102.78 1293.79 102.243 1291.22 101.17C1288.65 100.097 1286.44 98.6267 1284.57 96.76C1282.75 94.8467 1281.33 92.6067 1280.3 90.04C1279.27 87.4733 1278.76 84.6967 1278.76 81.71C1278.76 78.7233 1279.25 75.9467 1280.23 73.38C1281.26 70.8133 1282.68 68.5733 1284.5 66.66C1286.32 64.7467 1288.51 63.2533 1291.08 62.18C1293.65 61.06 1296.52 60.5 1299.69 60.5H1302.56V54.2H1313.34V60.5H1316.21C1319.38 60.5 1322.25 61.06 1324.82 62.18C1327.39 63.2533 1329.58 64.7467 1331.4 66.66C1333.22 68.5733 1334.62 70.8133 1335.6 73.38C1336.63 75.9467 1337.14 78.7233 1337.14 81.71C1337.14 84.6967 1336.63 87.4733 1335.6 90.04C1334.57 92.6067 1333.13 94.8467 1331.26 96.76C1329.44 98.6267 1327.25 100.097 1324.68 101.17C1322.11 102.243 1319.29 102.78 1316.21 102.78H1313.34V109.08H1302.56V102.78ZM1302.77 94.03V69.25H1299.69C1297.92 69.25 1296.4 69.53 1295.14 70.09C1293.88 70.6033 1292.85 71.3267 1292.06 72.26C1291.27 73.1467 1290.66 74.22 1290.24 75.48C1289.87 76.6933 1289.68 78.0233 1289.68 79.47V83.81C1289.68 86.75 1290.5 89.2 1292.13 91.16C1293.81 93.0733 1296.33 94.03 1299.69 94.03H1302.77ZM1316.21 94.03C1319.57 94.03 1322.07 93.0733 1323.7 91.16C1325.38 89.2 1326.22 86.75 1326.22 83.81V79.47C1326.22 78.0233 1326.01 76.6933 1325.59 75.48C1325.22 74.22 1324.63 73.1467 1323.84 72.26C1323.05 71.3267 1322 70.6033 1320.69 70.09C1319.43 69.53 1317.94 69.25 1316.21 69.25H1313.13V94.03H1316.21ZM1364.6 106.84C1361.38 106.84 1358.44 106.303 1355.78 105.23C1353.12 104.157 1350.86 102.57 1348.99 100.47C1347.12 98.3233 1345.68 95.6867 1344.65 92.56C1343.62 89.3867 1343.11 85.7233 1343.11 81.57C1343.11 77.4167 1343.62 73.7767 1344.65 70.65C1345.68 67.4767 1347.12 64.84 1348.99 62.74C1350.86 60.5933 1353.12 58.9833 1355.78 57.91C1358.44 56.8367 1361.38 56.3 1364.6 56.3C1367.82 56.3 1370.76 56.8367 1373.42 57.91C1376.08 58.9833 1378.34 60.5933 1380.21 62.74C1382.08 64.84 1383.52 67.4767 1384.55 70.65C1385.58 73.7767 1386.09 77.4167 1386.09 81.57C1386.09 85.7233 1385.58 89.3867 1384.55 92.56C1383.52 95.6867 1382.08 98.3233 1380.21 100.47C1378.34 102.57 1376.08 104.157 1373.42 105.23C1370.76 106.303 1367.82 106.84 1364.6 106.84ZM1364.6 97.39C1367.82 97.39 1370.32 96.34 1372.09 94.24C1373.91 92.14 1374.82 89.13 1374.82 85.21V77.93C1374.82 74.01 1373.91 71 1372.09 68.9C1370.32 66.8 1367.82 65.75 1364.6 65.75C1361.38 65.75 1358.86 66.8 1357.04 68.9C1355.27 71 1354.38 74.01 1354.38 77.93V85.21C1354.38 89.13 1355.27 92.14 1357.04 94.24C1358.86 96.34 1361.38 97.39 1364.6 97.39Z" fill="black"/>
<path d="M1673.39 57.14H1683.75V81.01L1682.63 91.3H1682.84L1687.67 81.99L1703.77 57.14H1713.29V106H1702.93V82.13L1704.05 71.84H1703.84L1699.01 81.15L1682.91 106H1673.39V57.14ZM1753.3 85.98H1734.68V106H1724.04V57.14H1734.68V76.6H1753.3V57.14H1763.94V106H1753.3V85.98ZM1795.56 102.78H1792.69C1789.61 102.78 1786.79 102.243 1784.22 101.17C1781.65 100.097 1779.44 98.6267 1777.57 96.76C1775.75 94.8467 1774.33 92.6067 1773.3 90.04C1772.27 87.4733 1771.76 84.6967 1771.76 81.71C1771.76 78.7233 1772.25 75.9467 1773.23 73.38C1774.26 70.8133 1775.68 68.5733 1777.5 66.66C1779.32 64.7467 1781.51 63.2533 1784.08 62.18C1786.65 61.06 1789.52 60.5 1792.69 60.5H1795.56V54.2H1806.34V60.5H1809.21C1812.38 60.5 1815.25 61.06 1817.82 62.18C1820.39 63.2533 1822.58 64.7467 1824.4 66.66C1826.22 68.5733 1827.62 70.8133 1828.6 73.38C1829.63 75.9467 1830.14 78.7233 1830.14 81.71C1830.14 84.6967 1829.63 87.4733 1828.6 90.04C1827.57 92.6067 1826.13 94.8467 1824.26 96.76C1822.44 98.6267 1820.25 100.097 1817.68 101.17C1815.11 102.243 1812.29 102.78 1809.21 102.78H1806.34V109.08H1795.56V102.78ZM1795.77 94.03V69.25H1792.69C1790.92 69.25 1789.4 69.53 1788.14 70.09C1786.88 70.6033 1785.85 71.3267 1785.06 72.26C1784.27 73.1467 1783.66 74.22 1783.24 75.48C1782.87 76.6933 1782.68 78.0233 1782.68 79.47V83.81C1782.68 86.75 1783.5 89.2 1785.13 91.16C1786.81 93.0733 1789.33 94.03 1792.69 94.03H1795.77ZM1809.21 94.03C1812.57 94.03 1815.07 93.0733 1816.7 91.16C1818.38 89.2 1819.22 86.75 1819.22 83.81V79.47C1819.22 78.0233 1819.01 76.6933 1818.59 75.48C1818.22 74.22 1817.63 73.1467 1816.84 72.26C1816.05 71.3267 1815 70.6033 1813.69 70.09C1812.43 69.53 1810.94 69.25 1809.21 69.25H1806.13V94.03H1809.21ZM1857.6 106.84C1854.38 106.84 1851.44 106.303 1848.78 105.23C1846.12 104.157 1843.86 102.57 1841.99 100.47C1840.12 98.3233 1838.68 95.6867 1837.65 92.56C1836.62 89.3867 1836.11 85.7233 1836.11 81.57C1836.11 77.4167 1836.62 73.7767 1837.65 70.65C1838.68 67.4767 1840.12 64.84 1841.99 62.74C1843.86 60.5933 1846.12 58.9833 1848.78 57.91C1851.44 56.8367 1854.38 56.3 1857.6 56.3C1860.82 56.3 1863.76 56.8367 1866.42 57.91C1869.08 58.9833 1871.34 60.5933 1873.21 62.74C1875.08 64.84 1876.52 67.4767 1877.55 70.65C1878.58 73.7767 1879.09 77.4167 1879.09 81.57C1879.09 85.7233 1878.58 89.3867 1877.55 92.56C1876.52 95.6867 1875.08 98.3233 1873.21 100.47C1871.34 102.57 1869.08 104.157 1866.42 105.23C1863.76 106.303 1860.82 106.84 1857.6 106.84ZM1857.6 97.39C1860.82 97.39 1863.32 96.34 1865.09 94.24C1866.91 92.14 1867.82 89.13 1867.82 85.21V77.93C1867.82 74.01 1866.91 71 1865.09 68.9C1863.32 66.8 1860.82 65.75 1857.6 65.75C1854.38 65.75 1851.86 66.8 1850.04 68.9C1848.27 71 1847.38 74.01 1847.38 77.93V85.21C1847.38 89.13 1848.27 92.14 1850.04 94.24C1851.86 96.34 1854.38 97.39 1857.6 97.39Z" fill="black"/>
<path d="M2166.39 57.14H2176.75V81.01L2175.63 91.3H2175.84L2180.67 81.99L2196.77 57.14H2206.29V106H2195.93V82.13L2197.05 71.84H2196.84L2192.01 81.15L2175.91 106H2166.39V57.14ZM2246.3 85.98H2227.68V106H2217.04V57.14H2227.68V76.6H2246.3V57.14H2256.94V106H2246.3V85.98ZM2288.56 102.78H2285.69C2282.61 102.78 2279.79 102.243 2277.22 101.17C2274.65 100.097 2272.44 98.6267 2270.57 96.76C2268.75 94.8467 2267.33 92.6067 2266.3 90.04C2265.27 87.4733 2264.76 84.6967 2264.76 81.71C2264.76 78.7233 2265.25 75.9467 2266.23 73.38C2267.26 70.8133 2268.68 68.5733 2270.5 66.66C2272.32 64.7467 2274.51 63.2533 2277.08 62.18C2279.65 61.06 2282.52 60.5 2285.69 60.5H2288.56V54.2H2299.34V60.5H2302.21C2305.38 60.5 2308.25 61.06 2310.82 62.18C2313.39 63.2533 2315.58 64.7467 2317.4 66.66C2319.22 68.5733 2320.62 70.8133 2321.6 73.38C2322.63 75.9467 2323.14 78.7233 2323.14 81.71C2323.14 84.6967 2322.63 87.4733 2321.6 90.04C2320.57 92.6067 2319.13 94.8467 2317.26 96.76C2315.44 98.6267 2313.25 100.097 2310.68 101.17C2308.11 102.243 2305.29 102.78 2302.21 102.78H2299.34V109.08H2288.56V102.78ZM2288.77 94.03V69.25H2285.69C2283.92 69.25 2282.4 69.53 2281.14 70.09C2279.88 70.6033 2278.85 71.3267 2278.06 72.26C2277.27 73.1467 2276.66 74.22 2276.24 75.48C2275.87 76.6933 2275.68 78.0233 2275.68 79.47V83.81C2275.68 86.75 2276.5 89.2 2278.13 91.16C2279.81 93.0733 2282.33 94.03 2285.69 94.03H2288.77ZM2302.21 94.03C2305.57 94.03 2308.07 93.0733 2309.7 91.16C2311.38 89.2 2312.22 86.75 2312.22 83.81V79.47C2312.22 78.0233 2312.01 76.6933 2311.59 75.48C2311.22 74.22 2310.63 73.1467 2309.84 72.26C2309.05 71.3267 2308 70.6033 2306.69 70.09C2305.43 69.53 2303.94 69.25 2302.21 69.25H2299.13V94.03H2302.21ZM2350.6 106.84C2347.38 106.84 2344.44 106.303 2341.78 105.23C2339.12 104.157 2336.86 102.57 2334.99 100.47C2333.12 98.3233 2331.68 95.6867 2330.65 92.56C2329.62 89.3867 2329.11 85.7233 2329.11 81.57C2329.11 77.4167 2329.62 73.7767 2330.65 70.65C2331.68 67.4767 2333.12 64.84 2334.99 62.74C2336.86 60.5933 2339.12 58.9833 2341.78 57.91C2344.44 56.8367 2347.38 56.3 2350.6 56.3C2353.82 56.3 2356.76 56.8367 2359.42 57.91C2362.08 58.9833 2364.34 60.5933 2366.21 62.74C2368.08 64.84 2369.52 67.4767 2370.55 70.65C2371.58 73.7767 2372.09 77.4167 2372.09 81.57C2372.09 85.7233 2371.58 89.3867 2370.55 92.56C2369.52 95.6867 2368.08 98.3233 2366.21 100.47C2364.34 102.57 2362.08 104.157 2359.42 105.23C2356.76 106.303 2353.82 106.84 2350.6 106.84ZM2350.6 97.39C2353.82 97.39 2356.32 96.34 2358.09 94.24C2359.91 92.14 2360.82 89.13 2360.82 85.21V77.93C2360.82 74.01 2359.91 71 2358.09 68.9C2356.32 66.8 2353.82 65.75 2350.6 65.75C2347.38 65.75 2344.86 66.8 2343.04 68.9C2341.27 71 2340.38 74.01 2340.38 77.93V85.21C2340.38 89.13 2341.27 92.14 2343.04 94.24C2344.86 96.34 2347.38 97.39 2350.6 97.39Z" fill="black"/>
<path d="M2659.39 57.14H2669.75V81.01L2668.63 91.3H2668.84L2673.67 81.99L2689.77 57.14H2699.29V106H2688.93V82.13L2690.05 71.84H2689.84L2685.01 81.15L2668.91 106H2659.39V57.14ZM2739.3 85.98H2720.68V106H2710.04V57.14H2720.68V76.6H2739.3V57.14H2749.94V106H2739.3V85.98ZM2781.56 102.78H2778.69C2775.61 102.78 2772.79 102.243 2770.22 101.17C2767.65 100.097 2765.44 98.6267 2763.57 96.76C2761.75 94.8467 2760.33 92.6067 2759.3 90.04C2758.27 87.4733 2757.76 84.6967 2757.76 81.71C2757.76 78.7233 2758.25 75.9467 2759.23 73.38C2760.26 70.8133 2761.68 68.5733 2763.5 66.66C2765.32 64.7467 2767.51 63.2533 2770.08 62.18C2772.65 61.06 2775.52 60.5 2778.69 60.5H2781.56V54.2H2792.34V60.5H2795.21C2798.38 60.5 2801.25 61.06 2803.82 62.18C2806.39 63.2533 2808.58 64.7467 2810.4 66.66C2812.22 68.5733 2813.62 70.8133 2814.6 73.38C2815.63 75.9467 2816.14 78.7233 2816.14 81.71C2816.14 84.6967 2815.63 87.4733 2814.6 90.04C2813.57 92.6067 2812.13 94.8467 2810.26 96.76C2808.44 98.6267 2806.25 100.097 2803.68 101.17C2801.11 102.243 2798.29 102.78 2795.21 102.78H2792.34V109.08H2781.56V102.78ZM2781.77 94.03V69.25H2778.69C2776.92 69.25 2775.4 69.53 2774.14 70.09C2772.88 70.6033 2771.85 71.3267 2771.06 72.26C2770.27 73.1467 2769.66 74.22 2769.24 75.48C2768.87 76.6933 2768.68 78.0233 2768.68 79.47V83.81C2768.68 86.75 2769.5 89.2 2771.13 91.16C2772.81 93.0733 2775.33 94.03 2778.69 94.03H2781.77ZM2795.21 94.03C2798.57 94.03 2801.07 93.0733 2802.7 91.16C2804.38 89.2 2805.22 86.75 2805.22 83.81V79.47C2805.22 78.0233 2805.01 76.6933 2804.59 75.48C2804.22 74.22 2803.63 73.1467 2802.84 72.26C2802.05 71.3267 2801 70.6033 2799.69 70.09C2798.43 69.53 2796.94 69.25 2795.21 69.25H2792.13V94.03H2795.21ZM2843.6 106.84C2840.38 106.84 2837.44 106.303 2834.78 105.23C2832.12 104.157 2829.86 102.57 2827.99 100.47C2826.12 98.3233 2824.68 95.6867 2823.65 92.56C2822.62 89.3867 2822.11 85.7233 2822.11 81.57C2822.11 77.4167 2822.62 73.7767 2823.65 70.65C2824.68 67.4767 2826.12 64.84 2827.99 62.74C2829.86 60.5933 2832.12 58.9833 2834.78 57.91C2837.44 56.8367 2840.38 56.3 2843.6 56.3C2846.82 56.3 2849.76 56.8367 2852.42 57.91C2855.08 58.9833 2857.34 60.5933 2859.21 62.74C2861.08 64.84 2862.52 67.4767 2863.55 70.65C2864.58 73.7767 2865.09 77.4167 2865.09 81.57C2865.09 85.7233 2864.58 89.3867 2863.55 92.56C2862.52 95.6867 2861.08 98.3233 2859.21 100.47C2857.34 102.57 2855.08 104.157 2852.42 105.23C2849.76 106.303 2846.82 106.84 2843.6 106.84ZM2843.6 97.39C2846.82 97.39 2849.32 96.34 2851.09 94.24C2852.91 92.14 2853.82 89.13 2853.82 85.21V77.93C2853.82 74.01 2852.91 71 2851.09 68.9C2849.32 66.8 2846.82 65.75 2843.6 65.75C2840.38 65.75 2837.86 66.8 2836.04 68.9C2834.27 71 2833.38 74.01 2833.38 77.93V85.21C2833.38 89.13 2834.27 92.14 2836.04 94.24C2837.86 96.34 2840.38 97.39 2843.6 97.39Z" fill="black"/>
</svg>
