<svg width="2892" height="151" viewBox="0 0 2892 151" fill="none" xmlns="http://www.w3.org/2000/svg">
<rect x="502" width="150" height="21" transform="rotate(90 502 0)" fill="black"/>
<rect x="21" width="150" height="21" transform="rotate(90 21 0)" fill="black"/>
<rect x="984" y="1" width="150" height="21" transform="rotate(90 984 1)" fill="black"/>
<rect x="1470" width="150" height="21" transform="rotate(90 1470 0)" fill="black"/>
<rect x="1951" width="150" height="21" transform="rotate(90 1951 0)" fill="black"/>
<rect x="2432" width="150" height="21" transform="rotate(90 2432 0)" fill="black"/>
<rect x="560" width="150" height="22" transform="rotate(90 560 0)" fill="black"/>
<rect x="79" width="150" height="22" transform="rotate(90 79 0)" fill="black"/>
<rect x="1042" y="1" width="150" height="22" transform="rotate(90 1042 1)" fill="black"/>
<rect x="1528" width="150" height="22" transform="rotate(90 1528 0)" fill="black"/>
<rect x="2009" width="150" height="22" transform="rotate(90 2009 0)" fill="black"/>
<rect x="2490" width="150" height="22" transform="rotate(90 2490 0)" fill="black"/>
<rect x="617" width="150" height="21" transform="rotate(90 617 0)" fill="black"/>
<rect x="136" width="150" height="21" transform="rotate(90 136 0)" fill="black"/>
<rect x="1099" y="1" width="150" height="21" transform="rotate(90 1099 1)" fill="black"/>
<rect x="1585" width="150" height="21" transform="rotate(90 1585 0)" fill="black"/>
<rect x="2066" width="150" height="21" transform="rotate(90 2066 0)" fill="black"/>
<rect x="2547" width="150" height="21" transform="rotate(90 2547 0)" fill="black"/>
<path d="M678.39 58.14H688.75V82.01L687.63 92.3H687.84L692.67 82.99L708.77 58.14H718.29V107H707.93V83.13L709.05 72.84H708.84L704.01 82.15L687.91 107H678.39V58.14ZM748.784 107.84C745.471 107.84 742.484 107.327 739.824 106.3C737.164 105.227 734.901 103.663 733.034 101.61C731.168 99.51 729.721 96.92 728.694 93.84C727.668 90.7133 727.154 87.0733 727.154 82.92C727.154 78.8133 727.668 75.1733 728.694 72C729.721 68.78 731.168 66.0967 733.034 63.95C734.901 61.7567 737.164 60.1 739.824 58.98C742.484 57.86 745.471 57.3 748.784 57.3C753.311 57.3 757.044 58.2333 759.984 60.1C762.924 61.92 765.281 64.8133 767.054 68.78L757.884 73.54C757.231 71.4867 756.204 69.8533 754.804 68.64C753.451 67.38 751.444 66.75 748.784 66.75C745.658 66.75 743.138 67.7767 741.224 69.83C739.358 71.8367 738.424 74.7767 738.424 78.65V86.49C738.424 90.3633 739.358 93.3267 741.224 95.38C743.138 97.3867 745.658 98.39 748.784 98.39C751.398 98.39 753.474 97.69 755.014 96.29C756.601 94.8433 757.768 93.1167 758.514 91.11L767.194 96.15C765.374 99.8833 762.971 102.777 759.984 104.83C757.044 106.837 753.311 107.84 748.784 107.84ZM774.64 58.14H785.28V77.6H792.35L799.63 63.95C800.703 61.99 801.893 60.5433 803.2 59.61C804.553 58.63 806.28 58.14 808.38 58.14H812.72V67.59H808.38L803.34 77.11C802.687 78.37 801.94 79.35 801.1 80.05C800.307 80.7033 799.35 81.2167 798.23 81.59V82.01C799.443 82.2433 800.47 82.71 801.31 83.41C802.197 84.0633 802.967 85.0667 803.62 86.42L809.36 97.55H813.7V107H808.17C806.21 107 804.577 106.58 803.27 105.74C802.01 104.9 800.797 103.337 799.63 101.05L792.35 86.98H785.28V107H774.64V58.14ZM821.876 107V58.14H844.976C847.263 58.14 849.316 58.5367 851.136 59.33C852.956 60.0767 854.496 61.1267 855.756 62.48C857.063 63.8333 858.066 65.49 858.766 67.45C859.466 69.3633 859.816 71.4633 859.816 73.75C859.816 76.0833 859.466 78.2067 858.766 80.12C858.066 82.0333 857.063 83.6667 855.756 85.02C854.496 86.3733 852.956 87.4467 851.136 88.24C849.316 88.9867 847.263 89.36 844.976 89.36H832.516V107H821.876ZM832.516 80.12H843.716C845.303 80.12 846.54 79.7233 847.426 78.93C848.36 78.09 848.826 76.8767 848.826 75.29V72.21C848.826 70.6233 848.36 69.4333 847.426 68.64C846.54 67.8 845.303 67.38 843.716 67.38H832.516V80.12ZM892.787 107L889.287 95.38H872.977L869.477 107H858.697L874.797 58.14H887.957L903.847 107H892.787ZM881.237 67.8H880.887L875.497 86.35H886.697L881.237 67.8Z" fill="black"/>
<path d="M197.39 58.14H207.75V82.01L206.63 92.3H206.84L211.67 82.99L227.77 58.14H237.29V107H226.93V83.13L228.05 72.84H227.84L223.01 82.15L206.91 107H197.39V58.14ZM267.784 107.84C264.471 107.84 261.484 107.327 258.824 106.3C256.164 105.227 253.901 103.663 252.034 101.61C250.168 99.51 248.721 96.92 247.694 93.84C246.668 90.7133 246.154 87.0733 246.154 82.92C246.154 78.8133 246.668 75.1733 247.694 72C248.721 68.78 250.168 66.0967 252.034 63.95C253.901 61.7567 256.164 60.1 258.824 58.98C261.484 57.86 264.471 57.3 267.784 57.3C272.311 57.3 276.044 58.2333 278.984 60.1C281.924 61.92 284.281 64.8133 286.054 68.78L276.884 73.54C276.231 71.4867 275.204 69.8533 273.804 68.64C272.451 67.38 270.444 66.75 267.784 66.75C264.658 66.75 262.138 67.7767 260.224 69.83C258.358 71.8367 257.424 74.7767 257.424 78.65V86.49C257.424 90.3633 258.358 93.3267 260.224 95.38C262.138 97.3867 264.658 98.39 267.784 98.39C270.398 98.39 272.474 97.69 274.014 96.29C275.601 94.8433 276.768 93.1167 277.514 91.11L286.194 96.15C284.374 99.8833 281.971 102.777 278.984 104.83C276.044 106.837 272.311 107.84 267.784 107.84ZM293.64 58.14H304.28V77.6H311.35L318.63 63.95C319.703 61.99 320.893 60.5433 322.2 59.61C323.553 58.63 325.28 58.14 327.38 58.14H331.72V67.59H327.38L322.34 77.11C321.687 78.37 320.94 79.35 320.1 80.05C319.307 80.7033 318.35 81.2167 317.23 81.59V82.01C318.443 82.2433 319.47 82.71 320.31 83.41C321.197 84.0633 321.967 85.0667 322.62 86.42L328.36 97.55H332.7V107H327.17C325.21 107 323.577 106.58 322.27 105.74C321.01 104.9 319.797 103.337 318.63 101.05L311.35 86.98H304.28V107H293.64V58.14ZM340.876 107V58.14H363.976C366.263 58.14 368.316 58.5367 370.136 59.33C371.956 60.0767 373.496 61.1267 374.756 62.48C376.063 63.8333 377.066 65.49 377.766 67.45C378.466 69.3633 378.816 71.4633 378.816 73.75C378.816 76.0833 378.466 78.2067 377.766 80.12C377.066 82.0333 376.063 83.6667 374.756 85.02C373.496 86.3733 371.956 87.4467 370.136 88.24C368.316 88.9867 366.263 89.36 363.976 89.36H351.516V107H340.876ZM351.516 80.12H362.716C364.303 80.12 365.54 79.7233 366.426 78.93C367.36 78.09 367.826 76.8767 367.826 75.29V72.21C367.826 70.6233 367.36 69.4333 366.426 68.64C365.54 67.8 364.303 67.38 362.716 67.38H351.516V80.12ZM411.787 107L408.287 95.38H391.977L388.477 107H377.697L393.797 58.14H406.957L422.847 107H411.787ZM400.237 67.8H399.887L394.497 86.35H405.697L400.237 67.8Z" fill="black"/>
<path d="M1160.39 57.14H1170.75V81.01L1169.63 91.3H1169.84L1174.67 81.99L1190.77 57.14H1200.29V106H1189.93V82.13L1191.05 71.84H1190.84L1186.01 81.15L1169.91 106H1160.39V57.14ZM1230.78 106.84C1227.47 106.84 1224.48 106.327 1221.82 105.3C1219.16 104.227 1216.9 102.663 1215.03 100.61C1213.17 98.51 1211.72 95.92 1210.69 92.84C1209.67 89.7133 1209.15 86.0733 1209.15 81.92C1209.15 77.8133 1209.67 74.1733 1210.69 71C1211.72 67.78 1213.17 65.0967 1215.03 62.95C1216.9 60.7567 1219.16 59.1 1221.82 57.98C1224.48 56.86 1227.47 56.3 1230.78 56.3C1235.31 56.3 1239.04 57.2333 1241.98 59.1C1244.92 60.92 1247.28 63.8133 1249.05 67.78L1239.88 72.54C1239.23 70.4867 1238.2 68.8533 1236.8 67.64C1235.45 66.38 1233.44 65.75 1230.78 65.75C1227.66 65.75 1225.14 66.7767 1223.22 68.83C1221.36 70.8367 1220.42 73.7767 1220.42 77.65V85.49C1220.42 89.3633 1221.36 92.3267 1223.22 94.38C1225.14 96.3867 1227.66 97.39 1230.78 97.39C1233.4 97.39 1235.47 96.69 1237.01 95.29C1238.6 93.8433 1239.77 92.1167 1240.51 90.11L1249.19 95.15C1247.37 98.8833 1244.97 101.777 1241.98 103.83C1239.04 105.837 1235.31 106.84 1230.78 106.84ZM1256.64 57.14H1267.28V76.6H1274.35L1281.63 62.95C1282.7 60.99 1283.89 59.5433 1285.2 58.61C1286.55 57.63 1288.28 57.14 1290.38 57.14H1294.72V66.59H1290.38L1285.34 76.11C1284.69 77.37 1283.94 78.35 1283.1 79.05C1282.31 79.7033 1281.35 80.2167 1280.23 80.59V81.01C1281.44 81.2433 1282.47 81.71 1283.31 82.41C1284.2 83.0633 1284.97 84.0667 1285.62 85.42L1291.36 96.55H1295.7V106H1290.17C1288.21 106 1286.58 105.58 1285.27 104.74C1284.01 103.9 1282.8 102.337 1281.63 100.05L1274.35 85.98H1267.28V106H1256.64V57.14ZM1303.88 106V57.14H1326.98C1329.26 57.14 1331.32 57.5367 1333.14 58.33C1334.96 59.0767 1336.5 60.1267 1337.76 61.48C1339.06 62.8333 1340.07 64.49 1340.77 66.45C1341.47 68.3633 1341.82 70.4633 1341.82 72.75C1341.82 75.0833 1341.47 77.2067 1340.77 79.12C1340.07 81.0333 1339.06 82.6667 1337.76 84.02C1336.5 85.3733 1334.96 86.4467 1333.14 87.24C1331.32 87.9867 1329.26 88.36 1326.98 88.36H1314.52V106H1303.88ZM1314.52 79.12H1325.72C1327.3 79.12 1328.54 78.7233 1329.43 77.93C1330.36 77.09 1330.83 75.8767 1330.83 74.29V71.21C1330.83 69.6233 1330.36 68.4333 1329.43 67.64C1328.54 66.8 1327.3 66.38 1325.72 66.38H1314.52V79.12ZM1374.79 106L1371.29 94.38H1354.98L1351.48 106H1340.7L1356.8 57.14H1369.96L1385.85 106H1374.79ZM1363.24 66.8H1362.89L1357.5 85.35H1368.7L1363.24 66.8Z" fill="black"/>
<path d="M1646.39 58.14H1656.75V82.01L1655.63 92.3H1655.84L1660.67 82.99L1676.77 58.14H1686.29V107H1675.93V83.13L1677.05 72.84H1676.84L1672.01 82.15L1655.91 107H1646.39V58.14ZM1716.78 107.84C1713.47 107.84 1710.48 107.327 1707.82 106.3C1705.16 105.227 1702.9 103.663 1701.03 101.61C1699.17 99.51 1697.72 96.92 1696.69 93.84C1695.67 90.7133 1695.15 87.0733 1695.15 82.92C1695.15 78.8133 1695.67 75.1733 1696.69 72C1697.72 68.78 1699.17 66.0967 1701.03 63.95C1702.9 61.7567 1705.16 60.1 1707.82 58.98C1710.48 57.86 1713.47 57.3 1716.78 57.3C1721.31 57.3 1725.04 58.2333 1727.98 60.1C1730.92 61.92 1733.28 64.8133 1735.05 68.78L1725.88 73.54C1725.23 71.4867 1724.2 69.8533 1722.8 68.64C1721.45 67.38 1719.44 66.75 1716.78 66.75C1713.66 66.75 1711.14 67.7767 1709.22 69.83C1707.36 71.8367 1706.42 74.7767 1706.42 78.65V86.49C1706.42 90.3633 1707.36 93.3267 1709.22 95.38C1711.14 97.3867 1713.66 98.39 1716.78 98.39C1719.4 98.39 1721.47 97.69 1723.01 96.29C1724.6 94.8433 1725.77 93.1167 1726.51 91.11L1735.19 96.15C1733.37 99.8833 1730.97 102.777 1727.98 104.83C1725.04 106.837 1721.31 107.84 1716.78 107.84ZM1742.64 58.14H1753.28V77.6H1760.35L1767.63 63.95C1768.7 61.99 1769.89 60.5433 1771.2 59.61C1772.55 58.63 1774.28 58.14 1776.38 58.14H1780.72V67.59H1776.38L1771.34 77.11C1770.69 78.37 1769.94 79.35 1769.1 80.05C1768.31 80.7033 1767.35 81.2167 1766.23 81.59V82.01C1767.44 82.2433 1768.47 82.71 1769.31 83.41C1770.2 84.0633 1770.97 85.0667 1771.62 86.42L1777.36 97.55H1781.7V107H1776.17C1774.21 107 1772.58 106.58 1771.27 105.74C1770.01 104.9 1768.8 103.337 1767.63 101.05L1760.35 86.98H1753.28V107H1742.64V58.14ZM1789.88 107V58.14H1812.98C1815.26 58.14 1817.32 58.5367 1819.14 59.33C1820.96 60.0767 1822.5 61.1267 1823.76 62.48C1825.06 63.8333 1826.07 65.49 1826.77 67.45C1827.47 69.3633 1827.82 71.4633 1827.82 73.75C1827.82 76.0833 1827.47 78.2067 1826.77 80.12C1826.07 82.0333 1825.06 83.6667 1823.76 85.02C1822.5 86.3733 1820.96 87.4467 1819.14 88.24C1817.32 88.9867 1815.26 89.36 1812.98 89.36H1800.52V107H1789.88ZM1800.52 80.12H1811.72C1813.3 80.12 1814.54 79.7233 1815.43 78.93C1816.36 78.09 1816.83 76.8767 1816.83 75.29V72.21C1816.83 70.6233 1816.36 69.4333 1815.43 68.64C1814.54 67.8 1813.3 67.38 1811.72 67.38H1800.52V80.12ZM1860.79 107L1857.29 95.38H1840.98L1837.48 107H1826.7L1842.8 58.14H1855.96L1871.85 107H1860.79ZM1849.24 67.8H1848.89L1843.5 86.35H1854.7L1849.24 67.8Z" fill="black"/>
<path d="M2127.39 58.14H2137.75V82.01L2136.63 92.3H2136.84L2141.67 82.99L2157.77 58.14H2167.29V107H2156.93V83.13L2158.05 72.84H2157.84L2153.01 82.15L2136.91 107H2127.39V58.14ZM2197.78 107.84C2194.47 107.84 2191.48 107.327 2188.82 106.3C2186.16 105.227 2183.9 103.663 2182.03 101.61C2180.17 99.51 2178.72 96.92 2177.69 93.84C2176.67 90.7133 2176.15 87.0733 2176.15 82.92C2176.15 78.8133 2176.67 75.1733 2177.69 72C2178.72 68.78 2180.17 66.0967 2182.03 63.95C2183.9 61.7567 2186.16 60.1 2188.82 58.98C2191.48 57.86 2194.47 57.3 2197.78 57.3C2202.31 57.3 2206.04 58.2333 2208.98 60.1C2211.92 61.92 2214.28 64.8133 2216.05 68.78L2206.88 73.54C2206.23 71.4867 2205.2 69.8533 2203.8 68.64C2202.45 67.38 2200.44 66.75 2197.78 66.75C2194.66 66.75 2192.14 67.7767 2190.22 69.83C2188.36 71.8367 2187.42 74.7767 2187.42 78.65V86.49C2187.42 90.3633 2188.36 93.3267 2190.22 95.38C2192.14 97.3867 2194.66 98.39 2197.78 98.39C2200.4 98.39 2202.47 97.69 2204.01 96.29C2205.6 94.8433 2206.77 93.1167 2207.51 91.11L2216.19 96.15C2214.37 99.8833 2211.97 102.777 2208.98 104.83C2206.04 106.837 2202.31 107.84 2197.78 107.84ZM2223.64 58.14H2234.28V77.6H2241.35L2248.63 63.95C2249.7 61.99 2250.89 60.5433 2252.2 59.61C2253.55 58.63 2255.28 58.14 2257.38 58.14H2261.72V67.59H2257.38L2252.34 77.11C2251.69 78.37 2250.94 79.35 2250.1 80.05C2249.31 80.7033 2248.35 81.2167 2247.23 81.59V82.01C2248.44 82.2433 2249.47 82.71 2250.31 83.41C2251.2 84.0633 2251.97 85.0667 2252.62 86.42L2258.36 97.55H2262.7V107H2257.17C2255.21 107 2253.58 106.58 2252.27 105.74C2251.01 104.9 2249.8 103.337 2248.63 101.05L2241.35 86.98H2234.28V107H2223.64V58.14ZM2270.88 107V58.14H2293.98C2296.26 58.14 2298.32 58.5367 2300.14 59.33C2301.96 60.0767 2303.5 61.1267 2304.76 62.48C2306.06 63.8333 2307.07 65.49 2307.77 67.45C2308.47 69.3633 2308.82 71.4633 2308.82 73.75C2308.82 76.0833 2308.47 78.2067 2307.77 80.12C2307.07 82.0333 2306.06 83.6667 2304.76 85.02C2303.5 86.3733 2301.96 87.4467 2300.14 88.24C2298.32 88.9867 2296.26 89.36 2293.98 89.36H2281.52V107H2270.88ZM2281.52 80.12H2292.72C2294.3 80.12 2295.54 79.7233 2296.43 78.93C2297.36 78.09 2297.83 76.8767 2297.83 75.29V72.21C2297.83 70.6233 2297.36 69.4333 2296.43 68.64C2295.54 67.8 2294.3 67.38 2292.72 67.38H2281.52V80.12ZM2341.79 107L2338.29 95.38H2321.98L2318.48 107H2307.7L2323.8 58.14H2336.96L2352.85 107H2341.79ZM2330.24 67.8H2329.89L2324.5 86.35H2335.7L2330.24 67.8Z" fill="black"/>
<path d="M2608.39 58.14H2618.75V82.01L2617.63 92.3H2617.84L2622.67 82.99L2638.77 58.14H2648.29V107H2637.93V83.13L2639.05 72.84H2638.84L2634.01 82.15L2617.91 107H2608.39V58.14ZM2678.78 107.84C2675.47 107.84 2672.48 107.327 2669.82 106.3C2667.16 105.227 2664.9 103.663 2663.03 101.61C2661.17 99.51 2659.72 96.92 2658.69 93.84C2657.67 90.7133 2657.15 87.0733 2657.15 82.92C2657.15 78.8133 2657.67 75.1733 2658.69 72C2659.72 68.78 2661.17 66.0967 2663.03 63.95C2664.9 61.7567 2667.16 60.1 2669.82 58.98C2672.48 57.86 2675.47 57.3 2678.78 57.3C2683.31 57.3 2687.04 58.2333 2689.98 60.1C2692.92 61.92 2695.28 64.8133 2697.05 68.78L2687.88 73.54C2687.23 71.4867 2686.2 69.8533 2684.8 68.64C2683.45 67.38 2681.44 66.75 2678.78 66.75C2675.66 66.75 2673.14 67.7767 2671.22 69.83C2669.36 71.8367 2668.42 74.7767 2668.42 78.65V86.49C2668.42 90.3633 2669.36 93.3267 2671.22 95.38C2673.14 97.3867 2675.66 98.39 2678.78 98.39C2681.4 98.39 2683.47 97.69 2685.01 96.29C2686.6 94.8433 2687.77 93.1167 2688.51 91.11L2697.19 96.15C2695.37 99.8833 2692.97 102.777 2689.98 104.83C2687.04 106.837 2683.31 107.84 2678.78 107.84ZM2704.64 58.14H2715.28V77.6H2722.35L2729.63 63.95C2730.7 61.99 2731.89 60.5433 2733.2 59.61C2734.55 58.63 2736.28 58.14 2738.38 58.14H2742.72V67.59H2738.38L2733.34 77.11C2732.69 78.37 2731.94 79.35 2731.1 80.05C2730.31 80.7033 2729.35 81.2167 2728.23 81.59V82.01C2729.44 82.2433 2730.47 82.71 2731.31 83.41C2732.2 84.0633 2732.97 85.0667 2733.62 86.42L2739.36 97.55H2743.7V107H2738.17C2736.21 107 2734.58 106.58 2733.27 105.74C2732.01 104.9 2730.8 103.337 2729.63 101.05L2722.35 86.98H2715.28V107H2704.64V58.14ZM2751.88 107V58.14H2774.98C2777.26 58.14 2779.32 58.5367 2781.14 59.33C2782.96 60.0767 2784.5 61.1267 2785.76 62.48C2787.06 63.8333 2788.07 65.49 2788.77 67.45C2789.47 69.3633 2789.82 71.4633 2789.82 73.75C2789.82 76.0833 2789.47 78.2067 2788.77 80.12C2788.07 82.0333 2787.06 83.6667 2785.76 85.02C2784.5 86.3733 2782.96 87.4467 2781.14 88.24C2779.32 88.9867 2777.26 89.36 2774.98 89.36H2762.52V107H2751.88ZM2762.52 80.12H2773.72C2775.3 80.12 2776.54 79.7233 2777.43 78.93C2778.36 78.09 2778.83 76.8767 2778.83 75.29V72.21C2778.83 70.6233 2778.36 69.4333 2777.43 68.64C2776.54 67.8 2775.3 67.38 2773.72 67.38H2762.52V80.12ZM2822.79 107L2819.29 95.38H2802.98L2799.48 107H2788.7L2804.8 58.14H2817.96L2833.85 107H2822.79ZM2811.24 67.8H2810.89L2805.5 86.35H2816.7L2811.24 67.8Z" fill="black"/>
</svg>
