<svg width="2892" height="150" viewBox="0 0 2892 150" fill="none" xmlns="http://www.w3.org/2000/svg">
<path d="M678.39 52.14H688.75V76.01L687.63 86.3H687.84L692.67 76.99L708.77 52.14H718.29V101H707.93V77.13L709.05 66.84H708.84L704.01 76.15L687.91 101H678.39V52.14ZM748.784 101.84C745.471 101.84 742.484 101.327 739.824 100.3C737.164 99.2267 734.901 97.6633 733.034 95.61C731.168 93.51 729.721 90.92 728.694 87.84C727.668 84.7133 727.154 81.0733 727.154 76.92C727.154 72.8133 727.668 69.1733 728.694 66C729.721 62.78 731.168 60.0967 733.034 57.95C734.901 55.7567 737.164 54.1 739.824 52.98C742.484 51.86 745.471 51.3 748.784 51.3C753.311 51.3 757.044 52.2333 759.984 54.1C762.924 55.92 765.281 58.8133 767.054 62.78L757.884 67.54C757.231 65.4867 756.204 63.8533 754.804 62.64C753.451 61.38 751.444 60.75 748.784 60.75C745.658 60.75 743.138 61.7767 741.224 63.83C739.358 65.8367 738.424 68.7767 738.424 72.65V80.49C738.424 84.3633 739.358 87.3267 741.224 89.38C743.138 91.3867 745.658 92.39 748.784 92.39C751.398 92.39 753.474 91.69 755.014 90.29C756.601 88.8433 757.768 87.1167 758.514 85.11L767.194 90.15C765.374 93.8833 762.971 96.7767 759.984 98.83C757.044 100.837 753.311 101.84 748.784 101.84ZM774.64 52.14H785.28V71.6H792.35L799.63 57.95C800.703 55.99 801.893 54.5433 803.2 53.61C804.553 52.63 806.28 52.14 808.38 52.14H812.72V61.59H808.38L803.34 71.11C802.687 72.37 801.94 73.35 801.1 74.05C800.307 74.7033 799.35 75.2167 798.23 75.59V76.01C799.443 76.2433 800.47 76.71 801.31 77.41C802.197 78.0633 802.967 79.0667 803.62 80.42L809.36 91.55H813.7V101H808.17C806.21 101 804.577 100.58 803.27 99.74C802.01 98.9 800.797 97.3367 799.63 95.05L792.35 80.98H785.28V101H774.64V52.14ZM821.876 101V52.14H844.976C847.263 52.14 849.316 52.5367 851.136 53.33C852.956 54.0767 854.496 55.1267 855.756 56.48C857.063 57.8333 858.066 59.49 858.766 61.45C859.466 63.3633 859.816 65.4633 859.816 67.75C859.816 70.0833 859.466 72.2067 858.766 74.12C858.066 76.0333 857.063 77.6667 855.756 79.02C854.496 80.3733 852.956 81.4467 851.136 82.24C849.316 82.9867 847.263 83.36 844.976 83.36H832.516V101H821.876ZM832.516 74.12H843.716C845.303 74.12 846.54 73.7233 847.426 72.93C848.36 72.09 848.826 70.8767 848.826 69.29V66.21C848.826 64.6233 848.36 63.4333 847.426 62.64C846.54 61.8 845.303 61.38 843.716 61.38H832.516V74.12ZM892.787 101L889.287 89.38H872.977L869.477 101H858.697L874.797 52.14H887.957L903.847 101H892.787ZM881.237 61.8H880.887L875.497 80.35H886.697L881.237 61.8Z" fill="black"/>
<path d="M197.39 52.14H207.75V76.01L206.63 86.3H206.84L211.67 76.99L227.77 52.14H237.29V101H226.93V77.13L228.05 66.84H227.84L223.01 76.15L206.91 101H197.39V52.14ZM267.784 101.84C264.471 101.84 261.484 101.327 258.824 100.3C256.164 99.2267 253.901 97.6633 252.034 95.61C250.168 93.51 248.721 90.92 247.694 87.84C246.668 84.7133 246.154 81.0733 246.154 76.92C246.154 72.8133 246.668 69.1733 247.694 66C248.721 62.78 250.168 60.0967 252.034 57.95C253.901 55.7567 256.164 54.1 258.824 52.98C261.484 51.86 264.471 51.3 267.784 51.3C272.311 51.3 276.044 52.2333 278.984 54.1C281.924 55.92 284.281 58.8133 286.054 62.78L276.884 67.54C276.231 65.4867 275.204 63.8533 273.804 62.64C272.451 61.38 270.444 60.75 267.784 60.75C264.658 60.75 262.138 61.7767 260.224 63.83C258.358 65.8367 257.424 68.7767 257.424 72.65V80.49C257.424 84.3633 258.358 87.3267 260.224 89.38C262.138 91.3867 264.658 92.39 267.784 92.39C270.398 92.39 272.474 91.69 274.014 90.29C275.601 88.8433 276.768 87.1167 277.514 85.11L286.194 90.15C284.374 93.8833 281.971 96.7767 278.984 98.83C276.044 100.837 272.311 101.84 267.784 101.84ZM293.64 52.14H304.28V71.6H311.35L318.63 57.95C319.703 55.99 320.893 54.5433 322.2 53.61C323.553 52.63 325.28 52.14 327.38 52.14H331.72V61.59H327.38L322.34 71.11C321.687 72.37 320.94 73.35 320.1 74.05C319.307 74.7033 318.35 75.2167 317.23 75.59V76.01C318.443 76.2433 319.47 76.71 320.31 77.41C321.197 78.0633 321.967 79.0667 322.62 80.42L328.36 91.55H332.7V101H327.17C325.21 101 323.577 100.58 322.27 99.74C321.01 98.9 319.797 97.3367 318.63 95.05L311.35 80.98H304.28V101H293.64V52.14ZM340.876 101V52.14H363.976C366.263 52.14 368.316 52.5367 370.136 53.33C371.956 54.0767 373.496 55.1267 374.756 56.48C376.063 57.8333 377.066 59.49 377.766 61.45C378.466 63.3633 378.816 65.4633 378.816 67.75C378.816 70.0833 378.466 72.2067 377.766 74.12C377.066 76.0333 376.063 77.6667 374.756 79.02C373.496 80.3733 371.956 81.4467 370.136 82.24C368.316 82.9867 366.263 83.36 363.976 83.36H351.516V101H340.876ZM351.516 74.12H362.716C364.303 74.12 365.54 73.7233 366.426 72.93C367.36 72.09 367.826 70.8767 367.826 69.29V66.21C367.826 64.6233 367.36 63.4333 366.426 62.64C365.54 61.8 364.303 61.38 362.716 61.38H351.516V74.12ZM411.787 101L408.287 89.38H391.977L388.477 101H377.697L393.797 52.14H406.957L422.847 101H411.787ZM400.237 61.8H399.887L394.497 80.35H405.697L400.237 61.8Z" fill="black"/>
<path d="M1160.39 52.14H1170.75V76.01L1169.63 86.3H1169.84L1174.67 76.99L1190.77 52.14H1200.29V101H1189.93V77.13L1191.05 66.84H1190.84L1186.01 76.15L1169.91 101H1160.39V52.14ZM1230.78 101.84C1227.47 101.84 1224.48 101.327 1221.82 100.3C1219.16 99.2267 1216.9 97.6633 1215.03 95.61C1213.17 93.51 1211.72 90.92 1210.69 87.84C1209.67 84.7133 1209.15 81.0733 1209.15 76.92C1209.15 72.8133 1209.67 69.1733 1210.69 66C1211.72 62.78 1213.17 60.0967 1215.03 57.95C1216.9 55.7567 1219.16 54.1 1221.82 52.98C1224.48 51.86 1227.47 51.3 1230.78 51.3C1235.31 51.3 1239.04 52.2333 1241.98 54.1C1244.92 55.92 1247.28 58.8133 1249.05 62.78L1239.88 67.54C1239.23 65.4867 1238.2 63.8533 1236.8 62.64C1235.45 61.38 1233.44 60.75 1230.78 60.75C1227.66 60.75 1225.14 61.7767 1223.22 63.83C1221.36 65.8367 1220.42 68.7767 1220.42 72.65V80.49C1220.42 84.3633 1221.36 87.3267 1223.22 89.38C1225.14 91.3867 1227.66 92.39 1230.78 92.39C1233.4 92.39 1235.47 91.69 1237.01 90.29C1238.6 88.8433 1239.77 87.1167 1240.51 85.11L1249.19 90.15C1247.37 93.8833 1244.97 96.7767 1241.98 98.83C1239.04 100.837 1235.31 101.84 1230.78 101.84ZM1256.64 52.14H1267.28V71.6H1274.35L1281.63 57.95C1282.7 55.99 1283.89 54.5433 1285.2 53.61C1286.55 52.63 1288.28 52.14 1290.38 52.14H1294.72V61.59H1290.38L1285.34 71.11C1284.69 72.37 1283.94 73.35 1283.1 74.05C1282.31 74.7033 1281.35 75.2167 1280.23 75.59V76.01C1281.44 76.2433 1282.47 76.71 1283.31 77.41C1284.2 78.0633 1284.97 79.0667 1285.62 80.42L1291.36 91.55H1295.7V101H1290.17C1288.21 101 1286.58 100.58 1285.27 99.74C1284.01 98.9 1282.8 97.3367 1281.63 95.05L1274.35 80.98H1267.28V101H1256.64V52.14ZM1303.88 101V52.14H1326.98C1329.26 52.14 1331.32 52.5367 1333.14 53.33C1334.96 54.0767 1336.5 55.1267 1337.76 56.48C1339.06 57.8333 1340.07 59.49 1340.77 61.45C1341.47 63.3633 1341.82 65.4633 1341.82 67.75C1341.82 70.0833 1341.47 72.2067 1340.77 74.12C1340.07 76.0333 1339.06 77.6667 1337.76 79.02C1336.5 80.3733 1334.96 81.4467 1333.14 82.24C1331.32 82.9867 1329.26 83.36 1326.98 83.36H1314.52V101H1303.88ZM1314.52 74.12H1325.72C1327.3 74.12 1328.54 73.7233 1329.43 72.93C1330.36 72.09 1330.83 70.8767 1330.83 69.29V66.21C1330.83 64.6233 1330.36 63.4333 1329.43 62.64C1328.54 61.8 1327.3 61.38 1325.72 61.38H1314.52V74.12ZM1374.79 101L1371.29 89.38H1354.98L1351.48 101H1340.7L1356.8 52.14H1369.96L1385.85 101H1374.79ZM1363.24 61.8H1362.89L1357.5 80.35H1368.7L1363.24 61.8Z" fill="black"/>
<path d="M1646.39 52.14H1656.75V76.01L1655.63 86.3H1655.84L1660.67 76.99L1676.77 52.14H1686.29V101H1675.93V77.13L1677.05 66.84H1676.84L1672.01 76.15L1655.91 101H1646.39V52.14ZM1716.78 101.84C1713.47 101.84 1710.48 101.327 1707.82 100.3C1705.16 99.2267 1702.9 97.6633 1701.03 95.61C1699.17 93.51 1697.72 90.92 1696.69 87.84C1695.67 84.7133 1695.15 81.0733 1695.15 76.92C1695.15 72.8133 1695.67 69.1733 1696.69 66C1697.72 62.78 1699.17 60.0967 1701.03 57.95C1702.9 55.7567 1705.16 54.1 1707.82 52.98C1710.48 51.86 1713.47 51.3 1716.78 51.3C1721.31 51.3 1725.04 52.2333 1727.98 54.1C1730.92 55.92 1733.28 58.8133 1735.05 62.78L1725.88 67.54C1725.23 65.4867 1724.2 63.8533 1722.8 62.64C1721.45 61.38 1719.44 60.75 1716.78 60.75C1713.66 60.75 1711.14 61.7767 1709.22 63.83C1707.36 65.8367 1706.42 68.7767 1706.42 72.65V80.49C1706.42 84.3633 1707.36 87.3267 1709.22 89.38C1711.14 91.3867 1713.66 92.39 1716.78 92.39C1719.4 92.39 1721.47 91.69 1723.01 90.29C1724.6 88.8433 1725.77 87.1167 1726.51 85.11L1735.19 90.15C1733.37 93.8833 1730.97 96.7767 1727.98 98.83C1725.04 100.837 1721.31 101.84 1716.78 101.84ZM1742.64 52.14H1753.28V71.6H1760.35L1767.63 57.95C1768.7 55.99 1769.89 54.5433 1771.2 53.61C1772.55 52.63 1774.28 52.14 1776.38 52.14H1780.72V61.59H1776.38L1771.34 71.11C1770.69 72.37 1769.94 73.35 1769.1 74.05C1768.31 74.7033 1767.35 75.2167 1766.23 75.59V76.01C1767.44 76.2433 1768.47 76.71 1769.31 77.41C1770.2 78.0633 1770.97 79.0667 1771.62 80.42L1777.36 91.55H1781.7V101H1776.17C1774.21 101 1772.58 100.58 1771.27 99.74C1770.01 98.9 1768.8 97.3367 1767.63 95.05L1760.35 80.98H1753.28V101H1742.64V52.14ZM1789.88 101V52.14H1812.98C1815.26 52.14 1817.32 52.5367 1819.14 53.33C1820.96 54.0767 1822.5 55.1267 1823.76 56.48C1825.06 57.8333 1826.07 59.49 1826.77 61.45C1827.47 63.3633 1827.82 65.4633 1827.82 67.75C1827.82 70.0833 1827.47 72.2067 1826.77 74.12C1826.07 76.0333 1825.06 77.6667 1823.76 79.02C1822.5 80.3733 1820.96 81.4467 1819.14 82.24C1817.32 82.9867 1815.26 83.36 1812.98 83.36H1800.52V101H1789.88ZM1800.52 74.12H1811.72C1813.3 74.12 1814.54 73.7233 1815.43 72.93C1816.36 72.09 1816.83 70.8767 1816.83 69.29V66.21C1816.83 64.6233 1816.36 63.4333 1815.43 62.64C1814.54 61.8 1813.3 61.38 1811.72 61.38H1800.52V74.12ZM1860.79 101L1857.29 89.38H1840.98L1837.48 101H1826.7L1842.8 52.14H1855.96L1871.85 101H1860.79ZM1849.24 61.8H1848.89L1843.5 80.35H1854.7L1849.24 61.8Z" fill="black"/>
<path d="M2127.39 52.14H2137.75V76.01L2136.63 86.3H2136.84L2141.67 76.99L2157.77 52.14H2167.29V101H2156.93V77.13L2158.05 66.84H2157.84L2153.01 76.15L2136.91 101H2127.39V52.14ZM2197.78 101.84C2194.47 101.84 2191.48 101.327 2188.82 100.3C2186.16 99.2267 2183.9 97.6633 2182.03 95.61C2180.17 93.51 2178.72 90.92 2177.69 87.84C2176.67 84.7133 2176.15 81.0733 2176.15 76.92C2176.15 72.8133 2176.67 69.1733 2177.69 66C2178.72 62.78 2180.17 60.0967 2182.03 57.95C2183.9 55.7567 2186.16 54.1 2188.82 52.98C2191.48 51.86 2194.47 51.3 2197.78 51.3C2202.31 51.3 2206.04 52.2333 2208.98 54.1C2211.92 55.92 2214.28 58.8133 2216.05 62.78L2206.88 67.54C2206.23 65.4867 2205.2 63.8533 2203.8 62.64C2202.45 61.38 2200.44 60.75 2197.78 60.75C2194.66 60.75 2192.14 61.7767 2190.22 63.83C2188.36 65.8367 2187.42 68.7767 2187.42 72.65V80.49C2187.42 84.3633 2188.36 87.3267 2190.22 89.38C2192.14 91.3867 2194.66 92.39 2197.78 92.39C2200.4 92.39 2202.47 91.69 2204.01 90.29C2205.6 88.8433 2206.77 87.1167 2207.51 85.11L2216.19 90.15C2214.37 93.8833 2211.97 96.7767 2208.98 98.83C2206.04 100.837 2202.31 101.84 2197.78 101.84ZM2223.64 52.14H2234.28V71.6H2241.35L2248.63 57.95C2249.7 55.99 2250.89 54.5433 2252.2 53.61C2253.55 52.63 2255.28 52.14 2257.38 52.14H2261.72V61.59H2257.38L2252.34 71.11C2251.69 72.37 2250.94 73.35 2250.1 74.05C2249.31 74.7033 2248.35 75.2167 2247.23 75.59V76.01C2248.44 76.2433 2249.47 76.71 2250.31 77.41C2251.2 78.0633 2251.97 79.0667 2252.62 80.42L2258.36 91.55H2262.7V101H2257.17C2255.21 101 2253.58 100.58 2252.27 99.74C2251.01 98.9 2249.8 97.3367 2248.63 95.05L2241.35 80.98H2234.28V101H2223.64V52.14ZM2270.88 101V52.14H2293.98C2296.26 52.14 2298.32 52.5367 2300.14 53.33C2301.96 54.0767 2303.5 55.1267 2304.76 56.48C2306.06 57.8333 2307.07 59.49 2307.77 61.45C2308.47 63.3633 2308.82 65.4633 2308.82 67.75C2308.82 70.0833 2308.47 72.2067 2307.77 74.12C2307.07 76.0333 2306.06 77.6667 2304.76 79.02C2303.5 80.3733 2301.96 81.4467 2300.14 82.24C2298.32 82.9867 2296.26 83.36 2293.98 83.36H2281.52V101H2270.88ZM2281.52 74.12H2292.72C2294.3 74.12 2295.54 73.7233 2296.43 72.93C2297.36 72.09 2297.83 70.8767 2297.83 69.29V66.21C2297.83 64.6233 2297.36 63.4333 2296.43 62.64C2295.54 61.8 2294.3 61.38 2292.72 61.38H2281.52V74.12ZM2341.79 101L2338.29 89.38H2321.98L2318.48 101H2307.7L2323.8 52.14H2336.96L2352.85 101H2341.79ZM2330.24 61.8H2329.89L2324.5 80.35H2335.7L2330.24 61.8Z" fill="black"/>
<path d="M2608.39 52.14H2618.75V76.01L2617.63 86.3H2617.84L2622.67 76.99L2638.77 52.14H2648.29V101H2637.93V77.13L2639.05 66.84H2638.84L2634.01 76.15L2617.91 101H2608.39V52.14ZM2678.78 101.84C2675.47 101.84 2672.48 101.327 2669.82 100.3C2667.16 99.2267 2664.9 97.6633 2663.03 95.61C2661.17 93.51 2659.72 90.92 2658.69 87.84C2657.67 84.7133 2657.15 81.0733 2657.15 76.92C2657.15 72.8133 2657.67 69.1733 2658.69 66C2659.72 62.78 2661.17 60.0967 2663.03 57.95C2664.9 55.7567 2667.16 54.1 2669.82 52.98C2672.48 51.86 2675.47 51.3 2678.78 51.3C2683.31 51.3 2687.04 52.2333 2689.98 54.1C2692.92 55.92 2695.28 58.8133 2697.05 62.78L2687.88 67.54C2687.23 65.4867 2686.2 63.8533 2684.8 62.64C2683.45 61.38 2681.44 60.75 2678.78 60.75C2675.66 60.75 2673.14 61.7767 2671.22 63.83C2669.36 65.8367 2668.42 68.7767 2668.42 72.65V80.49C2668.42 84.3633 2669.36 87.3267 2671.22 89.38C2673.14 91.3867 2675.66 92.39 2678.78 92.39C2681.4 92.39 2683.47 91.69 2685.01 90.29C2686.6 88.8433 2687.77 87.1167 2688.51 85.11L2697.19 90.15C2695.37 93.8833 2692.97 96.7767 2689.98 98.83C2687.04 100.837 2683.31 101.84 2678.78 101.84ZM2704.64 52.14H2715.28V71.6H2722.35L2729.63 57.95C2730.7 55.99 2731.89 54.5433 2733.2 53.61C2734.55 52.63 2736.28 52.14 2738.38 52.14H2742.72V61.59H2738.38L2733.34 71.11C2732.69 72.37 2731.94 73.35 2731.1 74.05C2730.31 74.7033 2729.35 75.2167 2728.23 75.59V76.01C2729.44 76.2433 2730.47 76.71 2731.31 77.41C2732.2 78.0633 2732.97 79.0667 2733.62 80.42L2739.36 91.55H2743.7V101H2738.17C2736.21 101 2734.58 100.58 2733.27 99.74C2732.01 98.9 2730.8 97.3367 2729.63 95.05L2722.35 80.98H2715.28V101H2704.64V52.14ZM2751.88 101V52.14H2774.98C2777.26 52.14 2779.32 52.5367 2781.14 53.33C2782.96 54.0767 2784.5 55.1267 2785.76 56.48C2787.06 57.8333 2788.07 59.49 2788.77 61.45C2789.47 63.3633 2789.82 65.4633 2789.82 67.75C2789.82 70.0833 2789.47 72.2067 2788.77 74.12C2788.07 76.0333 2787.06 77.6667 2785.76 79.02C2784.5 80.3733 2782.96 81.4467 2781.14 82.24C2779.32 82.9867 2777.26 83.36 2774.98 83.36H2762.52V101H2751.88ZM2762.52 74.12H2773.72C2775.3 74.12 2776.54 73.7233 2777.43 72.93C2778.36 72.09 2778.83 70.8767 2778.83 69.29V66.21C2778.83 64.6233 2778.36 63.4333 2777.43 62.64C2776.54 61.8 2775.3 61.38 2773.72 61.38H2762.52V74.12ZM2822.79 101L2819.29 89.38H2802.98L2799.48 101H2788.7L2804.8 52.14H2817.96L2833.85 101H2822.79ZM2811.24 61.8H2810.89L2805.5 80.35H2816.7L2811.24 61.8Z" fill="black"/>
<rect x="502" width="150" height="21" transform="rotate(90 502 0)" fill="black"/>
<rect x="21" width="150" height="21" transform="rotate(90 21 0)" fill="black"/>
<rect x="984" width="150" height="21" transform="rotate(90 984 0)" fill="black"/>
<rect x="1470" width="150" height="21" transform="rotate(90 1470 0)" fill="black"/>
<rect x="1951" width="150" height="21" transform="rotate(90 1951 0)" fill="black"/>
<rect x="2432" width="150" height="21" transform="rotate(90 2432 0)" fill="black"/>
<rect x="560" width="150" height="22" transform="rotate(90 560 0)" fill="black"/>
<rect x="79" width="150" height="22" transform="rotate(90 79 0)" fill="black"/>
<rect x="1042" width="150" height="22" transform="rotate(90 1042 0)" fill="black"/>
<rect x="1528" width="150" height="22" transform="rotate(90 1528 0)" fill="black"/>
<rect x="2009" width="150" height="22" transform="rotate(90 2009 0)" fill="black"/>
<rect x="2490" width="150" height="22" transform="rotate(90 2490 0)" fill="black"/>
<rect x="617" width="150" height="21" transform="rotate(90 617 0)" fill="black"/>
<rect x="136" width="150" height="21" transform="rotate(90 136 0)" fill="black"/>
<rect x="1099" width="150" height="21" transform="rotate(90 1099 0)" fill="black"/>
<rect x="1585" width="150" height="21" transform="rotate(90 1585 0)" fill="black"/>
<rect x="2066" width="150" height="21" transform="rotate(90 2066 0)" fill="black"/>
<rect x="2547" width="150" height="21" transform="rotate(90 2547 0)" fill="black"/>
</svg>
