<svg width="195" height="196" viewBox="0 0 195 196" fill="none" xmlns="http://www.w3.org/2000/svg">
<path d="M99.2472 1.98242H95.771V65.9326H99.2472V1.98242Z" fill="#FF6100"/>
<path d="M101.229 0H93.7791V67.9148H101.229V0Z" fill="#FF6100"/>
<path d="M166.255 31.1601L163.796 28.7031L118.596 73.9415L121.055 76.3985L166.255 31.1601Z" fill="#FF6100"/>
<path d="M163.782 25.8995L115.78 73.9424L121.051 79.2083L169.053 31.1654L163.782 25.8995Z" fill="#FF6100"/>
<path d="M193.028 99.1637L193.026 95.6875L129.075 95.7364L129.078 99.2126L193.028 99.1637Z" fill="#FF6100"/>
<path d="M195 93.7324H127.085V101.183H195V93.7324Z" fill="#FF6100"/>
<path d="M163.898 166.189L166.353 163.729L121.083 118.56L118.628 121.021L163.898 166.189Z" fill="#FF6100"/>
<path d="M121.084 115.76L115.822 121.034L163.899 169.002L169.161 163.728L121.084 115.76Z" fill="#FF6100"/>
<path d="M95.9149 193.017L99.3911 193.012L99.2933 129.062L95.8171 129.067L95.9149 193.017Z" fill="#FF6100"/>
<path d="M101.283 127.082L93.8323 127.094L93.9365 195.009L101.387 194.997L101.283 127.082Z" fill="#FF6100"/>
<path d="M28.8657 163.937L31.3286 166.391L76.4647 121.082L74.0018 118.628L28.8657 163.937Z" fill="#FF6100"/>
<path d="M73.9819 115.839L26.0476 163.95L31.3254 169.209L79.2597 121.098L73.9819 115.839Z" fill="#FF6100"/>
<path d="M1.9908 95.9877L1.99878 99.4639L65.949 99.3171L65.941 95.8409L1.9908 95.9877Z" fill="#FF6100"/>
<path d="M67.9148 93.8473L0 94.001L0.0168576 101.451L67.9316 101.298L67.9148 93.8473Z" fill="#FF6100"/>
<path d="M31.0076 28.9104L28.5562 31.375L73.8969 76.4727L76.3483 74.0081L31.0076 28.9104Z" fill="#FF6100"/>
<path d="M31.0067 26.1006L25.7527 31.3829L73.9043 79.2764L79.1582 73.9941L31.0067 26.1006Z" fill="#FF6100"/>
<path d="M97.3031 111.971C105.58 111.971 112.29 105.261 112.29 96.9838C112.29 88.7068 105.58 81.997 97.3031 81.997C89.0261 81.997 82.3162 88.7068 82.3162 96.9838C82.3162 105.261 89.0261 111.971 97.3031 111.971Z" fill="#FF6100"/>
</svg>
