<svg width="127" height="150" viewBox="0 0 127 150" fill="none" xmlns="http://www.w3.org/2000/svg">
<path d="M0 0H127V150H0V0Z" fill="#FFD101"/>
<path d="M66.176 109.152C61.76 109.152 57.76 108.416 54.176 106.944C50.592 105.472 47.52 103.264 44.96 100.32C42.464 97.376 40.512 93.76 39.104 89.472C37.696 85.184 36.992 80.192 36.992 74.496C36.992 68.864 37.696 63.904 39.104 59.616C40.512 55.264 42.464 51.616 44.96 48.672C47.52 45.728 50.592 43.52 54.176 42.048C57.76 40.576 61.76 39.84 66.176 39.84C70.592 39.84 74.592 40.576 78.176 42.048C81.76 43.52 84.832 45.728 87.392 48.672C89.952 51.616 91.904 55.264 93.248 59.616C94.656 63.904 95.36 68.864 95.36 74.496C95.36 80.192 94.656 85.184 93.248 89.472C91.904 93.76 89.952 97.376 87.392 100.32C84.832 103.264 81.76 105.472 78.176 106.944C74.592 108.416 70.592 109.152 66.176 109.152ZM66.176 97.92C70.976 97.92 74.784 96.32 77.6 93.12C80.48 89.92 81.92 85.44 81.92 79.68V69.312C81.92 63.552 80.48 59.072 77.6 55.872C74.784 52.672 70.976 51.072 66.176 51.072C61.376 51.072 57.536 52.672 54.656 55.872C51.84 59.072 50.432 63.552 50.432 69.312V79.68C50.432 85.44 51.84 89.92 54.656 93.12C57.536 96.32 61.376 97.92 66.176 97.92Z" fill="black"/>
</svg>
