<svg width="42" height="32" viewBox="0 0 42 32" fill="none" xmlns="http://www.w3.org/2000/svg">
<path d="M39.8399 2.95921L39.8383 1.70544L2.17333 1.72308L2.17489 2.97685L39.8399 2.95921Z" fill="#FF6100"/>
<path d="M41.0013 1H1.00129V3.68714H41.0013V1Z" fill="#FF6100"/>
<path d="M39.8386 16.5556L39.8371 15.3018L2.17204 15.3194L2.17361 16.5732L39.8386 16.5556Z" fill="#FF6100"/>
<path d="M41.0001 14.5963H1V17.2835H41.0001V14.5963Z" fill="#FF6100"/>
<path d="M39.8399 30.2721L39.8383 29.0183L2.17333 29.0359L2.17489 30.2897L39.8399 30.2721Z" fill="#FF6100"/>
<path d="M41.0013 28.3129H1.00129V31H41.0013V28.3129Z" fill="#FF6100"/>
<path d="M39.8399 2.95921L39.8383 1.70544L2.17333 1.72308L2.17489 2.97685L39.8399 2.95921Z" stroke="#FF6100"/>
<path d="M41.0013 1H1.00129V3.68714H41.0013V1Z" stroke="#FF6100"/>
<path d="M39.8386 16.5556L39.8371 15.3018L2.17204 15.3194L2.17361 16.5732L39.8386 16.5556Z" stroke="#FF6100"/>
<path d="M41.0001 14.5963H1V17.2835H41.0001V14.5963Z" stroke="#FF6100"/>
<path d="M39.8399 30.2721L39.8383 29.0183L2.17333 29.0359L2.17489 30.2897L39.8399 30.2721Z" stroke="#FF6100"/>
<path d="M41.0013 28.3129H1.00129V31H41.0013V28.3129Z" stroke="#FF6100"/>
</svg>
