<svg width="1137" height="614" viewBox="0 0 1137 614" fill="none" xmlns="http://www.w3.org/2000/svg">
<mask id="mask0_152_124" style="mask-type:alpha" maskUnits="userSpaceOnUse" x="0" y="0" width="1137" height="614">
<rect width="1137" height="613.224" fill="#FF6100"/>
</mask>
<g mask="url(#mask0_152_124)">
<path d="M580.5 63.9528H560.297V431.376H580.5V63.9528Z" fill="#FFD101"/>
<path d="M592.022 52.562H548.722V442.763H592.022V52.562Z" fill="#FFD101"/>
<path d="M969.937 231.599L955.646 217.483L692.949 477.397L707.241 491.514L969.937 231.599Z" fill="#FFD101"/>
<path d="M955.57 201.375L676.589 477.403L707.219 507.658L986.201 231.63L955.57 201.375Z" fill="#FFD101"/>
<path d="M1125.54 622.311L1125.52 602.339L753.854 602.62L753.869 622.592L1125.54 622.311Z" fill="#FFD101"/>
<path d="M1137 591.101H742.288V633.907H1137V591.101Z" fill="#FFD101"/>
<path d="M956.244 1007.39L970.513 993.249L707.408 733.738L693.139 747.876L956.244 1007.39Z" fill="#FFD101"/>
<path d="M707.413 717.641L676.83 747.943L956.246 1023.54L986.828 993.241L707.413 717.641Z" fill="#FFD101"/>
<path d="M561.132 1161.52L581.335 1161.49L580.767 794.067L560.563 794.097L561.132 1161.52Z" fill="#FFD101"/>
<path d="M592.327 782.697L549.027 782.763L549.629 1172.96L592.929 1172.9L592.327 782.697Z" fill="#FFD101"/>
<path d="M171.448 994.446L185.762 1008.54L448.086 748.224L433.772 734.127L171.448 994.446Z" fill="#FFD101"/>
<path d="M433.655 718.108L155.068 994.526L185.742 1024.74L464.329 748.32L433.655 718.108Z" fill="#FFD101"/>
<path d="M15.2578 604.043L15.3042 624.015L386.974 623.172L386.928 603.2L15.2578 604.043Z" fill="#FFD101"/>
<path d="M398.4 591.75L3.68848 592.632L3.78654 635.437L398.498 634.555L398.4 591.75Z" fill="#FFD101"/>
<path d="M183.903 218.66L169.656 232.82L433.17 491.927L447.417 477.767L183.903 218.66Z" fill="#FFD101"/>
<path d="M183.896 202.51L153.361 232.859L433.211 508.029L463.746 477.68L183.896 202.51Z" fill="#FFD101"/>
<path d="M569.201 701.625C617.306 701.625 656.303 663.074 656.303 615.519C656.303 567.964 617.306 529.412 569.201 529.412C521.096 529.412 482.1 567.964 482.1 615.519C482.1 663.074 521.096 701.625 569.201 701.625Z" fill="#FFD101"/>
<path d="M580.5 63.9528H560.297V431.376H580.5V63.9528Z" stroke="#FFD101" stroke-width="5"/>
<path d="M592.022 52.562H548.722V442.763H592.022V52.562Z" stroke="#FFD101" stroke-width="5"/>
<path d="M969.937 231.599L955.646 217.483L692.949 477.397L707.241 491.514L969.937 231.599Z" stroke="#FFD101" stroke-width="5"/>
<path d="M955.57 201.375L676.589 477.403L707.219 507.658L986.201 231.63L955.57 201.375Z" stroke="#FFD101" stroke-width="5"/>
<path d="M1125.54 622.311L1125.52 602.339L753.854 602.62L753.869 622.592L1125.54 622.311Z" stroke="#FFD101" stroke-width="5"/>
<path d="M1137 591.101H742.288V633.907H1137V591.101Z" stroke="#FFD101" stroke-width="5"/>
<path d="M956.244 1007.39L970.513 993.249L707.408 733.738L693.139 747.876L956.244 1007.39Z" stroke="#FFD101" stroke-width="5"/>
<path d="M707.413 717.641L676.83 747.943L956.246 1023.54L986.828 993.241L707.413 717.641Z" stroke="#FFD101" stroke-width="5"/>
<path d="M561.132 1161.52L581.335 1161.49L580.767 794.067L560.563 794.097L561.132 1161.52Z" stroke="#FFD101" stroke-width="5"/>
<path d="M592.327 782.697L549.027 782.763L549.629 1172.96L592.929 1172.9L592.327 782.697Z" stroke="#FFD101" stroke-width="5"/>
<path d="M171.448 994.446L185.762 1008.54L448.086 748.224L433.772 734.127L171.448 994.446Z" stroke="#FFD101" stroke-width="5"/>
<path d="M433.655 718.108L155.068 994.526L185.742 1024.74L464.329 748.32L433.655 718.108Z" stroke="#FFD101" stroke-width="5"/>
<path d="M15.2578 604.043L15.3042 624.015L386.974 623.172L386.928 603.2L15.2578 604.043Z" stroke="#FFD101" stroke-width="5"/>
<path d="M398.4 591.75L3.68848 592.632L3.78654 635.437L398.498 634.555L398.4 591.75Z" stroke="#FFD101" stroke-width="5"/>
<path d="M183.903 218.66L169.656 232.82L433.17 491.927L447.417 477.767L183.903 218.66Z" stroke="#FFD101" stroke-width="5"/>
<path d="M183.896 202.51L153.361 232.859L433.211 508.029L463.746 477.68L183.896 202.51Z" stroke="#FFD101" stroke-width="5"/>
<path d="M569.201 701.625C617.306 701.625 656.303 663.074 656.303 615.519C656.303 567.964 617.306 529.412 569.201 529.412C521.096 529.412 482.1 567.964 482.1 615.519C482.1 663.074 521.096 701.625 569.201 701.625Z" stroke="#FFD101" stroke-width="5"/>
</g>
</svg>
