<svg width="1137" height="614" viewBox="0 0 1137 614" fill="none" xmlns="http://www.w3.org/2000/svg">
<mask id="mask0_194_727" style="mask-type:alpha" maskUnits="userSpaceOnUse" x="0" y="0" width="1137" height="614">
<rect width="1137" height="613.224" transform="matrix(1 0 0 -1 0 613.224)" fill="#FF6100"/>
</mask>
<g mask="url(#mask0_194_727)">
<path d="M580.5 549.271H560.297V181.848H580.5V549.271Z" fill="#5EB6CA"/>
<path d="M592.022 560.662H548.722V170.461H592.022V560.662Z" fill="#5EB6CA"/>
<path d="M969.937 381.625L955.646 395.741L692.949 135.826L707.241 121.71L969.937 381.625Z" fill="#5EB6CA"/>
<path d="M955.57 411.849L676.589 135.821L707.219 105.566L986.201 381.594L955.57 411.849Z" fill="#5EB6CA"/>
<path d="M1125.54 -9.08725L1125.52 10.8852L753.854 10.6042L753.869 -9.36826L1125.54 -9.08725Z" fill="#5EB6CA"/>
<path d="M1137 22.1228H742.288V-20.6831H1137V22.1228Z" fill="#5EB6CA"/>
<path d="M956.244 -394.163L970.513 -380.025L707.408 -120.514L693.139 -134.653L956.244 -394.163Z" fill="#5EB6CA"/>
<path d="M707.413 -104.418L676.83 -134.72L956.246 -410.319L986.828 -380.017L707.413 -104.418Z" fill="#5EB6CA"/>
<path d="M561.132 -548.297L581.335 -548.266L580.767 -180.843L560.563 -180.873L561.132 -548.297Z" fill="#5EB6CA"/>
<path d="M592.327 -169.473L549.027 -169.539L549.629 -559.74L592.929 -559.674L592.327 -169.473Z" fill="#5EB6CA"/>
<path d="M171.448 -381.222L185.762 -395.319L448.086 -135L433.772 -120.903L171.448 -381.222Z" fill="#5EB6CA"/>
<path d="M433.655 -104.884L155.068 -381.302L185.742 -411.514L464.329 -135.096L433.655 -104.884Z" fill="#5EB6CA"/>
<path d="M15.2578 9.18082L15.3042 -10.7909L386.974 -9.94785L386.928 10.0239L15.2578 9.18082Z" fill="#5EB6CA"/>
<path d="M398.4 21.4736L3.68848 20.5915L3.78654 -22.2133L398.498 -21.3313L398.4 21.4736Z" fill="#5EB6CA"/>
<path d="M183.903 394.564L169.656 380.404L433.17 121.297L447.417 135.457L183.903 394.564Z" fill="#5EB6CA"/>
<path d="M183.896 410.714L153.361 380.364L433.211 105.195L463.746 135.544L183.896 410.714Z" fill="#5EB6CA"/>
<path d="M569.201 -88.4013C617.306 -88.4013 656.303 -49.8501 656.303 -2.29495C656.303 45.2602 617.306 83.8114 569.201 83.8114C521.096 83.8114 482.1 45.2602 482.1 -2.29495C482.1 -49.8501 521.096 -88.4013 569.201 -88.4013Z" fill="#5EB6CA"/>
<path d="M580.5 549.271H560.297V181.848H580.5V549.271Z" stroke="#5EB6CA" stroke-width="5"/>
<path d="M592.022 560.662H548.722V170.461H592.022V560.662Z" stroke="#5EB6CA" stroke-width="5"/>
<path d="M969.937 381.625L955.646 395.741L692.949 135.826L707.241 121.71L969.937 381.625Z" stroke="#5EB6CA" stroke-width="5"/>
<path d="M955.57 411.849L676.589 135.821L707.219 105.566L986.201 381.594L955.57 411.849Z" stroke="#5EB6CA" stroke-width="5"/>
<path d="M1125.54 -9.08725L1125.52 10.8852L753.854 10.6042L753.869 -9.36826L1125.54 -9.08725Z" stroke="#5EB6CA" stroke-width="5"/>
<path d="M1137 22.1228H742.288V-20.6831H1137V22.1228Z" stroke="#5EB6CA" stroke-width="5"/>
<path d="M956.244 -394.163L970.513 -380.025L707.408 -120.514L693.139 -134.653L956.244 -394.163Z" stroke="#5EB6CA" stroke-width="5"/>
<path d="M707.413 -104.418L676.83 -134.72L956.246 -410.319L986.828 -380.017L707.413 -104.418Z" stroke="#5EB6CA" stroke-width="5"/>
<path d="M561.132 -548.297L581.335 -548.266L580.767 -180.843L560.563 -180.873L561.132 -548.297Z" stroke="#5EB6CA" stroke-width="5"/>
<path d="M592.327 -169.473L549.027 -169.539L549.629 -559.74L592.929 -559.674L592.327 -169.473Z" stroke="#5EB6CA" stroke-width="5"/>
<path d="M171.448 -381.222L185.762 -395.319L448.086 -135L433.772 -120.903L171.448 -381.222Z" stroke="#5EB6CA" stroke-width="5"/>
<path d="M433.655 -104.884L155.068 -381.302L185.742 -411.514L464.329 -135.096L433.655 -104.884Z" stroke="#5EB6CA" stroke-width="5"/>
<path d="M15.2578 9.18082L15.3042 -10.7909L386.974 -9.94785L386.928 10.0239L15.2578 9.18082Z" stroke="#5EB6CA" stroke-width="5"/>
<path d="M398.4 21.4736L3.68848 20.5915L3.78654 -22.2133L398.498 -21.3313L398.4 21.4736Z" stroke="#5EB6CA" stroke-width="5"/>
<path d="M183.903 394.564L169.656 380.404L433.17 121.297L447.417 135.457L183.903 394.564Z" stroke="#5EB6CA" stroke-width="5"/>
<path d="M183.896 410.714L153.361 380.364L433.211 105.195L463.746 135.544L183.896 410.714Z" stroke="#5EB6CA" stroke-width="5"/>
<path d="M569.201 -88.4013C617.306 -88.4013 656.303 -49.8501 656.303 -2.29495C656.303 45.2602 617.306 83.8114 569.201 83.8114C521.096 83.8114 482.1 45.2602 482.1 -2.29495C482.1 -49.8501 521.096 -88.4013 569.201 -88.4013Z" stroke="#5EB6CA" stroke-width="5"/>
</g>
</svg>
