<svg width="1137" height="614" viewBox="0 0 1137 614" fill="none" xmlns="http://www.w3.org/2000/svg">
<mask id="mask0_199_769" style="mask-type:alpha" maskUnits="userSpaceOnUse" x="0" y="0" width="1137" height="614">
<rect width="1137" height="613.224" transform="matrix(1 0 0 -1 0 613.224)" fill="#FF6100"/>
</mask>
<g mask="url(#mask0_199_769)">
<path d="M580.5 549.271H560.297V181.848H580.5V549.271Z" fill="#FFD101"/>
<path d="M592.022 560.662H548.722V170.461H592.022V560.662Z" fill="#FFD101"/>
<path d="M969.937 381.625L955.646 395.741L692.949 135.826L707.241 121.71L969.937 381.625Z" fill="#FFD101"/>
<path d="M955.57 411.849L676.589 135.82L707.219 105.566L986.201 381.594L955.57 411.849Z" fill="#FFD101"/>
<path d="M1125.54 -9.08746L1125.52 10.885L753.854 10.6039L753.869 -9.36847L1125.54 -9.08746Z" fill="#FFD101"/>
<path d="M1137 22.1226H742.288V-20.6833H1137V22.1226Z" fill="#FFD101"/>
<path d="M956.244 -394.164L970.513 -380.025L707.408 -120.514L693.139 -134.653L956.244 -394.164Z" fill="#FFD101"/>
<path d="M707.413 -104.418L676.83 -134.72L956.246 -410.319L986.828 -380.017L707.413 -104.418Z" fill="#FFD101"/>
<path d="M561.132 -548.297L581.335 -548.266L580.767 -180.843L560.563 -180.874L561.132 -548.297Z" fill="#FFD101"/>
<path d="M592.327 -169.473L549.027 -169.539L549.629 -559.74L592.929 -559.674L592.327 -169.473Z" fill="#FFD101"/>
<path d="M171.448 -381.223L185.762 -395.319L448.086 -135L433.772 -120.903L171.448 -381.223Z" fill="#FFD101"/>
<path d="M433.655 -104.885L155.068 -381.302L185.742 -411.514L464.329 -135.097L433.655 -104.885Z" fill="#FFD101"/>
<path d="M15.2578 9.1806L15.3042 -10.7911L386.974 -9.94806L386.928 10.0237L15.2578 9.1806Z" fill="#FFD101"/>
<path d="M398.4 21.4734L3.68848 20.5913L3.78654 -22.2136L398.498 -21.3315L398.4 21.4734Z" fill="#FFD101"/>
<path d="M183.903 394.564L169.656 380.403L433.17 121.297L447.417 135.457L183.903 394.564Z" fill="#FFD101"/>
<path d="M183.896 410.713L153.361 380.364L433.211 105.195L463.746 135.544L183.896 410.713Z" fill="#FFD101"/>
<path d="M569.201 -88.4015C617.306 -88.4015 656.303 -49.8504 656.303 -2.29517C656.303 45.26 617.306 83.8112 569.201 83.8112C521.097 83.8112 482.1 45.26 482.1 -2.29517C482.1 -49.8504 521.097 -88.4015 569.201 -88.4015Z" fill="#FFD101"/>
<path d="M580.5 549.271H560.297V181.848H580.5V549.271Z" stroke="#FFD101" stroke-width="5"/>
<path d="M592.022 560.662H548.722V170.461H592.022V560.662Z" stroke="#FFD101" stroke-width="5"/>
<path d="M969.937 381.625L955.646 395.741L692.949 135.826L707.241 121.71L969.937 381.625Z" stroke="#FFD101" stroke-width="5"/>
<path d="M955.57 411.849L676.589 135.82L707.219 105.566L986.201 381.594L955.57 411.849Z" stroke="#FFD101" stroke-width="5"/>
<path d="M1125.54 -9.08746L1125.52 10.885L753.854 10.6039L753.869 -9.36847L1125.54 -9.08746Z" stroke="#FFD101" stroke-width="5"/>
<path d="M1137 22.1226H742.288V-20.6833H1137V22.1226Z" stroke="#FFD101" stroke-width="5"/>
<path d="M956.244 -394.164L970.513 -380.025L707.408 -120.514L693.139 -134.653L956.244 -394.164Z" stroke="#FFD101" stroke-width="5"/>
<path d="M707.413 -104.418L676.83 -134.72L956.246 -410.319L986.828 -380.017L707.413 -104.418Z" stroke="#FFD101" stroke-width="5"/>
<path d="M561.132 -548.297L581.335 -548.266L580.767 -180.843L560.563 -180.874L561.132 -548.297Z" stroke="#FFD101" stroke-width="5"/>
<path d="M592.327 -169.473L549.027 -169.539L549.629 -559.74L592.929 -559.674L592.327 -169.473Z" stroke="#FFD101" stroke-width="5"/>
<path d="M171.448 -381.223L185.762 -395.319L448.086 -135L433.772 -120.903L171.448 -381.223Z" stroke="#FFD101" stroke-width="5"/>
<path d="M433.655 -104.885L155.068 -381.302L185.742 -411.514L464.329 -135.097L433.655 -104.885Z" stroke="#FFD101" stroke-width="5"/>
<path d="M15.2578 9.1806L15.3042 -10.7911L386.974 -9.94806L386.928 10.0237L15.2578 9.1806Z" stroke="#FFD101" stroke-width="5"/>
<path d="M398.4 21.4734L3.68848 20.5913L3.78654 -22.2136L398.498 -21.3315L398.4 21.4734Z" stroke="#FFD101" stroke-width="5"/>
<path d="M183.903 394.564L169.656 380.403L433.17 121.297L447.417 135.457L183.903 394.564Z" stroke="#FFD101" stroke-width="5"/>
<path d="M183.896 410.713L153.361 380.364L433.211 105.195L463.746 135.544L183.896 410.713Z" stroke="#FFD101" stroke-width="5"/>
<path d="M569.201 -88.4015C617.306 -88.4015 656.303 -49.8504 656.303 -2.29517C656.303 45.26 617.306 83.8112 569.201 83.8112C521.097 83.8112 482.1 45.26 482.1 -2.29517C482.1 -49.8504 521.097 -88.4015 569.201 -88.4015Z" stroke="#FFD101" stroke-width="5"/>
</g>
</svg>
